<svg version="1.2" xmlns="http://www.w3.org/2000/svg" viewBox="0 0 446 446" width="446" height="446"><style>.a{fill:#fff}</style><g style="opacity:.1"><path fill-rule="evenodd" class="a" d="m165.9 444c-1.7 0-3.3-0.7-4.5-1.9l-157.1-157.1c-2.1-2.1-2.5-5.2-1-7.7 1.4-2.5 4.3-3.7 7.1-3l247.9 66.5c2.2 0.5 3.9 2.2 4.5 4.4 0.5 2.2-0.1 4.6-1.7 6.2l-90.7 90.7c-1.2 1.2-2.8 1.9-4.5 1.9zm-135.9-151.3l135.9 136 78.5-78.5z"/><path fill-rule="evenodd" class="a" d="m347.4 262.5q-0.8 0-1.7-0.2c-2.2-0.6-3.9-2.3-4.5-4.5l-33.1-123.9c-0.6-2.2 0-4.5 1.6-6.1 1.6-1.6 3.9-2.2 6.1-1.7l123.9 33.2c2.2 0.6 4 2.3 4.5 4.5 0.6 2.2 0 4.5-1.6 6.1l-90.7 90.7c-1.2 1.3-2.9 1.9-4.5 1.9zm-24.2-121.3l27.5 102.7 75.2-75.2z"/><path fill-rule="evenodd" class="a" d="m8.8 286.8c-1.1 0-2.2-0.3-3.2-0.8-2.5-1.5-3.7-4.4-3-7.2l57.6-214.6c0.5-2.2 2.3-3.9 4.4-4.5l214.7-57.5c2.8-0.8 5.7 0.5 7.2 2.9 1.4 2.5 1 5.7-1 7.7l-272.3 272.2c-1.2 1.2-2.8 1.8-4.4 1.8zm62.7-215.8l-50.5 188.2 238.8-238.6z"/><path fill-rule="evenodd" class="a" d="m438.1 171.8q-0.8 0-1.6-0.2l-247.9-66.4c-2.2-0.6-3.9-2.3-4.5-4.5-0.6-2.2 0-4.5 1.7-6.1l90.7-90.8c2.5-2.4 6.5-2.4 9 0l157.1 157.2c2 2 2.4 5.1 1 7.6-1.2 2-3.3 3.2-5.5 3.2zm-235.6-76l214.4 57.4-135.9-135.9z"/><path fill-rule="evenodd" class="a" d="m165.9 444c-2.2 0-4.4-1.2-5.5-3.2-1.4-2.5-1-5.6 1-7.7l272.2-272.1c2.1-2.1 5.2-2.5 7.7-1 2.5 1.4 3.7 4.3 2.9 7.1l-57.5 214.6c-0.6 2.2-2.3 4-4.5 4.5l-214.7 57.6q-0.8 0.2-1.6 0.2zm260-257.3l-238.8 238.7 188.3-50.5z"/><path fill-rule="evenodd" class="a" d="m132.7 320q-0.8 0-1.7-0.2l-123.9-33.2c-2.2-0.6-3.9-2.3-4.5-4.5-0.6-2.2 0.1-4.5 1.7-6.1l90.7-90.7c1.6-1.6 3.9-2.2 6.1-1.7 2.2 0.6 3.9 2.3 4.5 4.5l33.2 123.9c0.6 2.2 0 4.5-1.6 6.2-1.2 1.2-2.9 1.8-4.5 1.8zm-111.7-42.8l102.7 27.5-27.5-102.7z"/></g></svg>