<svg version="1.2" xmlns="http://www.w3.org/2000/svg" viewBox="0 0 506 290" width="506" height="290">
	<title>Vector Smart Object-ai</title>
	<style>
		.s0 { fill: #ffffff } 
	</style>
	<g id="Layer 1">
		<g id="&lt;Group&gt;">
			<path id="&lt;Compound Path&gt;" fill-rule="evenodd" class="s0" d="m20.2 205.2v-1.8q0-0.4 0.4-0.4h3.8q0.4 0 0.4 0.4v13.4q0 1.2 0.5 1.7 0.5 0.5 1.5 0.5h1.6q0.1 0 0.2 0 0.1 0 0.3 0h46.7q0.6 0 1-0.2 0.4-0.2 0.6-0.6 0.1-0.4 0.2-1.1 0-0.6 0-1.5v-9.4q0-0.4 0.4-0.4h3.8q0.4 0 0.4 0.4v1.3q2-1 4.3-1.6 2.4-0.7 4.9-0.7 2.7 0 4.6 0.7 1.9 0.7 3.1 2 1.3 1.2 1.8 3.1 0.6 1.8 0.6 4 0 2.5-0.5 4.1-0.4 1.6-1.4 2.4-0.9 0.9-2.5 1.2-1.5 0.3-3.7 0.3h-7.7q-0.6 0-1.4 0-0.9 0-1.6-0.1-0.8-0.1-1.4-0.2-0.6-0.1-0.9-0.4-0.7 0.5-1.6 0.6-0.9 0.1-2.1 0.1h-47.6q-0.2 0-0.3 0-0.1 0-0.2 0h-3.4q-2 0-3.1-0.7-1.2-0.7-1.5-2.4-0.9 0.7-2.1 1.1-1.2 0.4-2.5 0.4-1.6 0-3.1-0.5-1.4-0.5-2.4-1.4-1.1-0.9-1.7-2.4-0.6-1.5-0.6-3.5 0-2.4 0.7-4 0.6-1.7 1.8-2.6 1.1-1 2.6-1.4 1.4-0.4 3-0.4zm-7.9-5.1q-0.4 0-0.4-0.4v-3.5q0-0.4 0.4-0.4h3.5q0.4 0 0.4 0.4v3.5q0 0.4-0.4 0.4zm4 17.2q1.9 0 2.9-1.2 0.9-1.1 0.9-3.3v-3.5h-3.6q-1.8 0-2.9 0.9-1.1 0.9-1.1 3.4 0 1.9 1 2.8 1 0.9 2.8 0.9zm1.3-17.2q-0.4 0-0.4-0.4v-3.5q0-0.4 0.4-0.4h3.5q0.4 0 0.4 0.4v3.5q0 0.4-0.4 0.4zm72.9 9.2q-2.4 0-4.6 0.7-2.2 0.7-3.9 1.5v5.6q0 0.5-0.1 1 0 0.5-0.1 0.9h8.9q1.8 0 2.9-0.1 1.1-0.1 1.7-0.5 0.6-0.3 0.8-1.2 0.2-0.8 0.2-2.4 0-1.3-0.3-2.3-0.2-1-0.9-1.7-0.7-0.8-1.8-1.1-1.1-0.4-2.8-0.4zm-1.7-7.5q-0.4 0-0.4-0.4v-3.6q0-0.4 0.4-0.4h3.9q0.4 0 0.4 0.4v3.6q0 0.4-0.4 0.4zm17.2-6.4q0-0.4 0.4-0.4h3.9q0.4 0 0.4 0.4v21.4q0 1.2 0.5 1.7 0.4 0.5 1.5 0.5h19q1 0 1.5-0.5 0.4-0.5 0.4-1.7v-10.5q0-0.4 0.5-0.4h3.8q0.4 0 0.4 0.4v11.5q0 2.7-1.1 4-1.1 1.2-3.7 1.2h-22.6q-2.6 0-3.8-1.2-1.1-1.3-1.1-4zm24.5 35.6q-0.4 0-0.4-0.4v-3.5q0-0.5 0.4-0.5h3.5q0.4 0 0.4 0.5v3.5q0 0.4-0.4 0.4zm5.4 0q-0.4 0-0.4-0.4v-3.5q0-0.5 0.4-0.5h3.4q0.5 0 0.5 0.5v3.5q0 0.4-0.5 0.4zm10-24.6q0-0.4 0.4-0.4h3.8q0.4 0 0.4 0.4v10.1q0 1.2 1 1.9 0.9 0.6 2.5 0.6h2.7q1 0 1.5-0.5 0.5-0.4 0.5-1.7v-21.4q0-0.4 0.4-0.4h3.8q0.4 0 0.4 0.4v21.1q0 1.2 1 1.9 0.9 0.6 2.5 0.6h2.7q1 0 1.5-0.5 0.5-0.4 0.5-1.7v-21.4q0-0.4 0.4-0.4h3.8q0.4 0 0.4 0.4v22.5q0 2.7-1.1 3.9-1.1 1.3-3.7 1.3h-3.8q0 0 0 0-1.6 0-2.8-0.4-1.2-0.4-1.9-1.7-0.6 1.1-1.7 1.6-1.1 0.5-3 0.5h-3.4q0 0 0 0-1.4 0-2.4-0.3-1.1-0.2-1.8-1.1v0.8q0 2.2-0.3 3.9-0.4 1.7-1.2 2.8-0.9 1.1-2.3 1.7-1.4 0.5-3.5 0.5h-1.5q-0.4 0-0.4-0.4v-3.3q0-0.4 0.4-0.4h0.9q1.2 0 1.9-0.4 0.6-0.4 1-1.2 0.3-0.8 0.3-2 0.1-1.1 0.1-2.6zm56.5-1.1v-1.8q0-0.4 0.4-0.4h3.8q0.4 0 0.4 0.4v13.4q0 1.2 0.5 1.7 0.5 0.4 1.5 0.4h1.6q0.1 0 0.2 0.1 0.1-0.1 0.3-0.1h31.3q0.5 0 0.9-0.1 0.5-0.2 0.8-0.7 0.4-0.4 0.7-1.1 0.2-0.7 0.2-1.8 0-0.3 0-0.6 0-0.3 0-0.7 0-2.3 0.6-4 0.7-1.7 1.8-2.7 1.2-1.1 2.7-1.6 1.5-0.4 3.3-0.4 1.8 0 3.4 0.5 1.6 0.5 2.7 1.5 1.1 1.1 1.8 2.9 0.6 1.7 0.6 4.3 0 2.4-0.6 4.1-0.6 1.7-1.7 2.8-1.1 1-2.7 1.5-1.6 0.5-3.5 0.5-2 0-3.7-0.5-1.6-0.6-2.8-1.9-0.4 0.7-0.9 1.1-0.6 0.4-1.2 0.6-0.7 0.3-1.3 0.3-0.7 0.1-1.3 0.1h-31.1q-0.1 0-0.3 0-0.1 0-0.2 0h-3.4q-2 0-3.1-0.7-1.1-0.7-1.5-2.5-0.9 0.8-2.1 1.2-1.2 0.3-2.5 0.3-1.6 0-3-0.4-1.5-0.5-2.5-1.4-1.1-1-1.7-2.4-0.6-1.5-0.6-3.6 0-2.4 0.7-4 0.7-1.6 1.8-2.5 1.1-1 2.6-1.4 1.4-0.4 3-0.4zm-7.9-5.1q-0.4 0-0.4-0.4v-3.5q0-0.4 0.4-0.4h3.5q0.4 0 0.4 0.4v3.5q0 0.4-0.4 0.4zm4 17.2q2 0 2.9-1.2 1-1.1 1-3.3v-3.5h-3.7q-1.8 0-2.9 0.9-1 0.9-1 3.3 0 1.9 1 2.8 0.9 1 2.7 1zm1.3-17.2q-0.4 0-0.4-0.4v-3.5q0-0.4 0.4-0.4h3.5q0.4 0 0.4 0.4v3.5q0 0.4-0.4 0.4zm57.4 14.2q0-5-3.9-5-2 0-2.9 1.3-1 1.2-1 3.7 0 2.6 1 3.8 0.9 1.1 2.9 1.1 2 0 3-1.1 0.9-1.2 0.9-3.8zm9.5-18.9q0-0.4 0.4-0.4h3.8q0.4 0 0.4 0.4v21.4q0 1.2 0.5 1.7 0.5 0.4 1.5 0.4h1.4q0 0 0 0h44.5q0.6 0 1.5 0 0.8-0.1 1.9-0.3-0.3-1.4-0.9-2.4-0.5-1-1.2-1.7-0.7-0.8-1.5-1.4-0.8-0.6-1.7-1.2-0.4-0.3-0.5-0.6-0.1-0.2-0.1-0.6v-2.6q0-0.4 0.8-1 0.8-0.5 2.1-0.9 1.3-0.5 2.9-0.8 1.7-0.2 3.4-0.2 4.8 0 6.9 1.7 2.2 1.8 2.2 4.7 0 1.2-0.4 2.3-0.4 1.1-1 2.1-0.6 0.9-1.4 1.6-0.8 0.8-1.5 1.3 0.3 0 0.7 0 0.4 0 0.9 0h5.1q0 0 0 0h2q1.1 0 1.5-0.4 0.5-0.5 0.5-1.7v-21.4q0-0.4 0.4-0.4h3.9q0.4 0 0.4 0.4v22.4q0 2.7-1.1 4-1.1 1.2-3.7 1.2h-3.9q0 0 0 0h-6.1q-1.5 0-2.9-0.2-1.3-0.3-2.5-1.1-1.4 0.8-2.9 1.1-1.5 0.2-2.7 0.2h-45.6q0 0 0 0h-3.2q-2.6 0-3.7-1.2-1.1-1.3-1.1-4zm59.8 22.3q0.7-0.4 1.4-1 0.6-0.6 1.2-1.3 0.5-0.7 0.8-1.4 0.3-0.8 0.3-1.7 0-1.6-1.2-2.3-1.2-0.7-3.1-0.7-1.6 0-2.9 0.4-1.2 0.3-1.6 0.5 1.9 1.2 3.2 3.2 1.3 1.9 1.9 4.3zm29.6 5q0 0.4-0.4 0.4h-3.8q-0.4 0-0.4-0.4v-27.3q0-0.4 0.4-0.4h3.8q0.4 0 0.4 0.4zm26.3-17.4v-1.8q0-0.4 0.4-0.4h3.8q0.4 0 0.4 0.4v13.4q0 1.2 0.5 1.7 0.5 0.5 1.5 0.5h1.6q0.1 0 0.2 0 0.1 0 0.3 0h24.7q0.1 0 0.2 0 0 0 0.1 0h2q0.7 0 1.1-0.3 0.4-0.2 0.6-0.6 0.1-0.5 0.2-1.2 0-0.8 0-1.8v-8.8q0-0.4 0.4-0.4h3.9q0.4 0 0.4 0.4v10.1q0 1.2 0.9 1.9 1 0.7 2.5 0.7h10.4q0.1 0 0.1 0 0.1 0 0.1 0h2.7q0.7 0 1.1-0.3 0.4-0.2 0.6-0.7 0.2-0.4 0.2-1.2 0.1-0.8 0.1-1.9v-8.6q0-0.2 0.2-0.3 0.2-0.1 0.5-0.1h3.5q0.5 0 0.5 0.4v10.1q0 1.2 0.9 1.9 0.9 0.7 2.5 0.7h4.7v-4.7q0-2.6 0.7-4.3 0.7-1.7 1.9-2.8 1.1-1.1 2.6-1.6 1.5-0.4 3.1-0.4 1.9 0 3.4 0.4 1.6 0.5 2.7 1.5 1.2 1 1.8 2.6 0.7 1.6 0.7 3.8 0 1.6-0.5 3.1-0.5 1.5-1 2.4h6.2q1 0 1.5-0.5 0.5-0.5 0.5-1.7v-21.4q0-0.4 0.4-0.4h3.8q0.4 0 0.4 0.4v22.4q0 2.7-1.1 4-1.1 1.2-3.7 1.2h-7.8q0.9 1.2 0.9 2.9 0 2.9-2.2 4.4-2.1 1.5-5.9 1.5-1.9 0-3.4-0.3-1.6-0.4-2.7-1.1-1.1-0.8-1.7-2-0.6-1.2-0.6-3v-2.4h-4q0 0 0 0 0 0 0 0-1.6 0-2.8-0.4-1.2-0.3-1.9-1.7-0.6 1.2-1.8 1.7-1.2 0.4-3.1 0.4h-3.9q0 0-0.1 0 0 0-0.1 0h-9.9q-0.1 0-0.2 0-1.3 0-2.4-0.4-1.2-0.3-1.9-1.7-0.6 1.2-1.7 1.7-1.1 0.4-3.1 0.4h-3.3q0 0-0.1 0 0 0-0.1 0h-24.7q-0.2 0-0.3 0-0.1 0-0.2 0h-3.4q-2 0-3.1-0.7-1.2-0.7-1.5-2.4-0.9 0.7-2.1 1.1-1.2 0.3-2.5 0.3-1.6 0-3-0.4-1.5-0.5-2.5-1.4-1.1-1-1.7-2.4-0.6-1.5-0.6-3.6 0-2.3 0.7-4 0.6-1.6 1.8-2.5 1.1-1 2.6-1.4 1.4-0.4 3-0.4zm-7.9-5.1q-0.4 0-0.4-0.4v-3.5q0-0.4 0.4-0.4h3.5q0.4 0 0.4 0.4v3.5q0 0.4-0.4 0.4zm4 17.2q1.9 0 2.9-1.2 0.9-1.1 0.9-3.3v-3.5h-3.6q-1.8 0-2.9 0.9-1.1 0.9-1.1 3.3 0 1.9 1 2.9 1 0.9 2.8 0.9zm1.3-17.2q-0.4 0-0.4-0.4v-3.5q0-0.4 0.4-0.4h3.5q0.4 0 0.4 0.4v3.5q0 0.4-0.4 0.4zm39.2-0.3q-0.3-0.4-0.4-0.9-0.2-0.6-0.2-1.3 0-0.6 0.2-1.3 0.3-0.7 0.8-1.3 0.5-0.6 1.4-1 0.9-0.4 2.2-0.4 1.2 0 2.2 0.5 1.1 0.5 1.5 1.2 0.2 0.3 0 0.4l-1.2 1.1q-0.2 0.2-0.4 0-0.4-0.5-0.9-0.7-0.5-0.3-1.2-0.3-1 0-1.6 0.6-0.5 0.6-0.5 1.3 0 0.9 0.4 1.4 0.5 0.5 0.9 0.7h4.5q0.3 0 0.3 0.3v1.6q0 0.3-0.3 0.3h-9.1q-0.2 0-0.2-0.3v-1.6q0-0.3 0.2-0.3zm21.9 31.2q-0.4 0-0.4-0.4v-3.6q0-0.4 0.4-0.4h3.5q0.4 0 0.4 0.4v3.6q0 0.4-0.4 0.4zm5.4 0q-0.4 0-0.4-0.4v-3.6q0-0.4 0.4-0.4h3.4q0.4 0 0.4 0.4v3.6q0 0.4-0.4 0.4zm18.2-21.7q-1.7 0-2.8 1.2-1 1.1-1 3.3v5.2h4.1q1 0 1.7-0.4 0.6-0.5 1.1-1.2 0.4-0.6 0.6-1.5 0.2-0.9 0.2-1.9 0-2.3-1-3.5-1-1.2-2.9-1.2zm-3.8 15.8q0 2.7 3.8 2.7 1.9 0 2.7-0.6 0.8-0.6 0.8-1.8 0-0.6-0.1-1.1-0.1-0.4-0.6-0.8-0.4-0.3-1.2-0.5-0.7-0.1-1.9-0.1h-3.5zm33.7-2.5q0 0.5-0.4 0.5h-3.8q-0.5 0-0.5-0.5v-27.2q0-0.4 0.5-0.4h3.8q0.4 0 0.4 0.4z"/>
			<path id="&lt;Compound Path&gt;" fill-rule="evenodd" class="s0" d="m8.8 274.6q-0.2-0.6-0.4-1.3-0.1-0.7-0.2-1.5-0.1-0.9-0.1-2.1-0.1-1.1-0.1-2.8 0-1.6 0.1-2.8 0-1.2 0.1-2.1 0.1-0.8 0.2-1.5 0.2-0.6 0.4-1.3 1-3.3 3.6-5.1 2.6-1.7 6.4-1.7 2 0 3.6 0.5 1.6 0.5 2.8 1.3 1.3 0.8 2.1 1.9 0.8 1.1 1.3 2.3 0.1 0.3-0.2 0.5l-3.5 1.6q-0.3 0.1-0.5-0.2-0.9-1.7-2.3-2.6-1.3-0.9-3.3-0.9-2.2 0-3.5 1-1.3 0.9-1.8 2.7-0.2 0.3-0.3 0.8-0.1 0.5-0.1 1.3-0.1 0.7-0.1 1.8 0 1 0 2.5 0 1.5 0 2.5 0 1.1 0.1 1.8 0 0.8 0.1 1.3 0.1 0.5 0.3 0.8 0.5 1.8 1.8 2.8 1.3 0.9 3.5 0.9 1.8 0 3.3-0.9 1.4-0.9 2-2.6 0.2-0.6 0.3-1.5 0.1-0.9 0.1-2.1 0-0.3-0.2-0.3h-4.6q-0.5 0-0.5-0.4v-3.3q0-0.4 0.5-0.4h9.2q0.5 0 0.5 0.4v2.5q0 1.7-0.2 3.4-0.2 1.6-0.5 2.7-1 3.3-3.7 5.1-2.6 1.8-6.2 1.8-3.8 0-6.4-1.7-2.6-1.7-3.6-5.1zm33.8 6.8q-3.2 0-5.4-1.5-2.1-1.4-2.9-4-0.4-1-0.5-2.2-0.2-1.1-0.2-2.7 0-1.6 0.1-2.8 0.2-1.2 0.5-2.1 0.9-2.6 3-4.1 2.2-1.4 5.2-1.4 3 0 5.2 1.5 2.1 1.4 2.9 4 0.2 0.5 0.3 1.1 0.1 0.5 0.2 1.2 0.1 0.7 0.1 1.6 0.1 0.9 0.1 2.1 0 0.4-0.5 0.4h-12.2q-0.3 0-0.3 0.2 0 0.5 0.1 0.9 0.1 0.3 0.2 0.7 1 3 4.5 3 1.7 0 2.8-0.6 1.1-0.5 1.8-1.3 0.4-0.4 0.7-0.1l2.4 2.1q0.3 0.3 0 0.6-1.2 1.5-3.3 2.4-2.1 1-4.8 1zm3.7-12.4q0.2 0 0.2-0.2 0-1-0.2-1.7-0.4-1.2-1.5-1.9-1-0.7-2.4-0.7-1.4 0-2.5 0.7-1 0.7-1.4 1.9-0.3 0.7-0.3 1.7 0 0.2 0.3 0.2zm22.4 11.9q-0.4 0-0.4-0.4v-11.4q0-2-0.9-3.2-1-1.2-2.8-1.2-1.9 0-2.8 1.2-1 1.2-1 3.2v11.4q0 0.4-0.5 0.4h-3.7q-0.5 0-0.5-0.4v-19q0-0.4 0.5-0.4h3.7q0.5 0 0.5 0.4v1.4q0.7-0.9 2-1.6 1.3-0.7 3.2-0.7 1.7 0 2.9 0.6 1.3 0.5 2.2 1.5 0.9 1 1.4 2.3 0.4 1.4 0.4 3v12.5q0 0.4-0.4 0.4zm18 0.5q-3.2 0-5.4-1.5-2.1-1.4-2.9-4-0.4-1-0.5-2.2-0.2-1.1-0.2-2.7 0-1.6 0.1-2.8 0.2-1.2 0.5-2.1 0.9-2.6 3-4.1 2.2-1.4 5.2-1.4 3.1 0 5.2 1.5 2.1 1.4 2.9 4 0.2 0.5 0.3 1.1 0.1 0.5 0.2 1.2 0.1 0.7 0.2 1.6 0 0.9 0 2.1 0 0.4-0.5 0.4h-12.2q-0.3 0-0.3 0.2 0 0.5 0.1 0.9 0.1 0.3 0.2 0.7 1.1 3 4.5 3 1.7 0 2.8-0.6 1.1-0.5 1.8-1.3 0.4-0.4 0.7-0.1l2.4 2.1q0.3 0.3 0 0.6-1.2 1.5-3.3 2.4-2.1 1-4.8 1zm3.7-12.4q0.2 0 0.2-0.2 0-1-0.2-1.7-0.4-1.2-1.5-1.9-1-0.7-2.4-0.7-1.4 0-2.5 0.7-1 0.7-1.4 1.9-0.3 0.7-0.3 1.7 0 0.2 0.3 0.2zm10.3 11.9q-0.5 0-0.5-0.4v-19q0-0.4 0.5-0.4h3.8q0.4 0 0.4 0.4v1.7q0.7-1.2 2-1.9 1.3-0.7 3.2-0.7 1.2 0 2.3 0.4 1.1 0.5 1.8 1.2 0.3 0.3 0.1 0.6l-2.2 2.8q-0.2 0.3-0.5 0.1-0.7-0.5-1.4-0.7-0.8-0.3-1.6-0.3-2 0-2.8 1.3-0.9 1.4-0.9 3.8v10.7q0 0.4-0.4 0.4zm28.1 0q-0.4 0-0.4-0.4v-1.4h-0.1q-0.7 1-2.1 1.7-1.4 0.6-3.5 0.6-1.3 0-2.5-0.4-1.3-0.3-2.2-1.1-0.9-0.7-1.4-1.9-0.6-1.1-0.6-2.7 0-3.2 2.2-4.8 2.1-1.5 5.8-1.5h4.1q0.2 0 0.2-0.2v-1q0-1.7-0.9-2.5-1-0.8-3.5-0.8-1.7 0-2.8 0.4-1 0.4-1.8 1-0.3 0.3-0.5-0.1l-1.6-2.7q-0.2-0.4 0.1-0.6 1.2-0.8 2.9-1.4 1.7-0.5 4.2-0.5 4.5 0 6.4 1.6 1.9 1.7 1.9 5.3v13q0 0.4-0.4 0.4zm-8.4-5.7q0 2.4 3.5 2.4 2.1 0 3.2-0.8 1.2-0.8 1.2-2.5v-1.6q0-0.2-0.3-0.2h-3.3q-2.2 0-3.2 0.6-1.1 0.7-1.1 2.1zm23.5 6q-3 0-4.2-1.4-1.3-1.4-1.3-4.3v-22.2q0-0.4 0.4-0.4h3.8q0.4 0 0.4 0.4v21.9q0 1.1 0.5 1.5 0.4 0.4 1.3 0.4h0.9q0.4 0 0.4 0.4v3.3q0 0.4-0.4 0.4zm23.7-27.9q0.1-0.4 0.5-0.4h3.8q0.5 0 0.6 0.4l9.5 27.2q0.1 0.4-0.3 0.4h-4.1q-0.4 0-0.5-0.4l-1.9-5.4h-10.5l-1.9 5.4q-0.1 0.4-0.5 0.4h-4q-0.4 0-0.3-0.4zm6.1 17.5l-3.7-10.9h-0.1l-3.7 10.9zm23.9 10.2q-0.4 0-0.4-0.4v-1.5h-0.1q-0.8 1.1-2 1.7-1.2 0.6-3.1 0.6-1.6 0-2.9-0.5-1.3-0.6-2.1-1.6-0.9-1-1.4-2.3-0.5-1.3-0.5-3v-12.5q0-0.4 0.4-0.4h3.8q0.4 0 0.4 0.4v11.5q0 1.9 1 3.1 0.9 1.2 2.8 1.2 1.7 0 2.7-1.2 1-1.2 1-3.1v-11.5q0-0.4 0.4-0.4h3.8q0.4 0 0.4 0.4v19.1q0 0.4-0.4 0.4zm16 0.2q-3 0-4.2-1.4-1.3-1.5-1.3-4.4v-10.5q0-0.2-0.2-0.2h-1.4q-0.4 0-0.4-0.4v-2.8q0-0.4 0.4-0.4h1.4q0.2 0 0.2-0.3v-5.4q0-0.4 0.4-0.4h3.8q0.4 0 0.4 0.4v5.4q0 0.3 0.3 0.3h2.6q0.4 0 0.4 0.4v2.8q0 0.4-0.4 0.4h-2.6q-0.3 0-0.3 0.2v10.3q0 1.1 0.5 1.5 0.4 0.4 1.4 0.4h1q0.4 0 0.4 0.4v3.3q0 0.4-0.4 0.4zm20-0.2q-0.4 0-0.4-0.4v-11.5q0-1.9-0.9-3.1-1-1.2-2.8-1.2-1.9 0-2.8 1.2-1 1.2-1 3.1v11.5q0 0.4-0.4 0.4h-3.8q-0.5 0-0.5-0.4v-27.3q0-0.4 0.5-0.4h3.8q0.4 0 0.4 0.4v9.6q0.7-0.9 2-1.6 1.3-0.7 3.2-0.7 1.7 0 2.9 0.6 1.3 0.5 2.2 1.5 0.9 1 1.4 2.4 0.4 1.3 0.4 2.9v12.6q0 0.4-0.4 0.4zm17.9 0.4q-3.1 0-5.3-1.4-2.1-1.5-3-4.1-0.3-1-0.5-2.1-0.1-1.1-0.1-2.8 0-1.6 0.1-2.7 0.2-1.1 0.5-2.2 0.9-2.6 3-4 2.2-1.5 5.3-1.5 3 0 5.1 1.5 2.2 1.4 3 4 0.4 1.1 0.5 2.2 0.2 1.1 0.2 2.7 0 1.7-0.2 2.8-0.1 1.1-0.5 2.1-0.8 2.6-3 4.1-2.1 1.4-5.1 1.4zm0-4.1q1.4 0 2.3-0.7 0.9-0.7 1.4-1.9 0.2-0.8 0.3-1.6 0.1-0.8 0.1-2.1 0-1.2-0.1-2-0.1-0.8-0.3-1.6-0.5-1.3-1.4-2-0.9-0.6-2.3-0.6-1.5 0-2.4 0.6-1 0.7-1.4 2-0.3 0.8-0.3 1.6-0.1 0.8-0.1 2 0 1.3 0.1 2.1 0 0.8 0.3 1.6 0.4 1.2 1.4 1.9 0.9 0.7 2.4 0.7zm14.1 3.7q-0.4 0-0.4-0.4v-19.1q0-0.4 0.4-0.4h3.8q0.5 0 0.5 0.4v1.7q0.7-1.2 2-1.9 1.3-0.7 3.2-0.7 1.2 0 2.2 0.5 1.1 0.4 1.9 1.2 0.3 0.3 0.1 0.6l-2.2 2.7q-0.2 0.4-0.6 0.1-0.7-0.4-1.4-0.7-0.7-0.2-1.5-0.2-2 0-2.9 1.3-0.8 1.3-0.8 3.7v10.8q0 0.4-0.5 0.4zm17.5-23.7q-0.4 0-0.4-0.4v-3.6q0-0.4 0.4-0.4h3.8q0.4 0 0.4 0.4v3.6q0 0.4-0.4 0.4zm0 23.7q-0.4 0-0.4-0.4v-19.1q0-0.4 0.4-0.4h3.8q0.4 0 0.4 0.4v19.1q0 0.4-0.4 0.4zm16 0.2q-3 0-4.2-1.4-1.3-1.5-1.3-4.4v-10.5q0-0.2-0.2-0.2h-1.4q-0.4 0-0.4-0.4v-2.8q0-0.4 0.4-0.4h1.4q0.2 0 0.2-0.3v-5.4q0-0.4 0.4-0.4h3.8q0.4 0 0.4 0.4v5.4q0 0.3 0.3 0.3h2.6q0.4 0 0.4 0.4v2.8q0 0.4-0.4 0.4h-2.6q-0.3 0-0.3 0.2v10.3q0 1.1 0.5 1.5 0.4 0.4 1.4 0.4h1q0.4 0 0.4 0.4v3.3q0 0.4-0.4 0.4zm8.2 7.2q-0.5 0-0.5-0.4v-3.3q0-0.4 0.5-0.4h0.7q1.2 0 1.9-0.6 0.6-0.5 1.1-1.8l0.5-1.7-7.2-18.7q-0.1-0.4 0.3-0.4h4.1q0.4 0 0.5 0.4l4.5 13h0.1l4.3-13q0.1-0.4 0.5-0.4h3.9q0.4 0 0.3 0.4l-7.6 20.7q-0.6 1.8-1.3 3-0.7 1.1-1.4 1.9-0.8 0.7-1.8 1-0.9 0.3-2.2 0.3zm36.9-7q-3.1 0-5.2-1.4-2.2-1.5-3-4.1-0.4-1-0.5-2.1-0.2-1.1-0.2-2.8 0-1.6 0.2-2.7 0.1-1.1 0.5-2.2 0.8-2.6 3-4 2.1-1.5 5.2-1.5 3 0 5.2 1.5 2.1 1.4 3 4 0.3 1.1 0.4 2.2 0.2 1.1 0.2 2.7 0 1.7-0.2 2.8-0.1 1.1-0.4 2.1-0.9 2.6-3 4.1-2.2 1.4-5.2 1.4zm0-4.1q1.4 0 2.3-0.7 0.9-0.7 1.4-1.9 0.2-0.8 0.3-1.6 0.1-0.8 0.1-2.1 0-1.2-0.1-2-0.1-0.8-0.3-1.6-0.5-1.3-1.4-2-0.9-0.6-2.3-0.6-1.4 0-2.4 0.6-0.9 0.7-1.4 2-0.2 0.8-0.3 1.6-0.1 0.8-0.1 2 0 1.3 0.1 2.1 0.1 0.8 0.3 1.6 0.5 1.2 1.4 1.9 1 0.7 2.4 0.7zm14.8 3.7q-0.4 0-0.4-0.4v-15.7q0-0.2-0.3-0.2h-1.3q-0.4 0-0.4-0.4v-2.8q0-0.4 0.4-0.4h1.3q0.3 0 0.3-0.3v-1.2q0-3.5 1.7-5.1 1.6-1.6 4.9-1.6h1.8q0.4 0 0.4 0.4v3.3q0 0.4-0.4 0.4h-1.3q-0.8 0-1.3 0.1-0.5 0.2-0.7 0.4-0.3 0.3-0.4 0.8-0.1 0.4-0.1 1.2v1.3q0 0.3 0.3 0.3h3.5q0.4 0 0.4 0.4v2.8q0 0.4-0.4 0.4h-3.5q-0.3 0-0.3 0.2v15.7q0 0.4-0.4 0.4zm31.1 0.4q-1.5 0-3-0.3-1.5-0.2-2.8-0.7-1.4-0.5-2.5-1.2-1.1-0.7-2-1.5-0.3-0.3-0.1-0.6l2.6-3q0.3-0.3 0.6 0 0.6 0.5 1.5 1.1 0.8 0.5 1.8 0.9 1 0.4 2 0.7 1.1 0.3 2.3 0.3 2.5 0 3.9-1.2 1.4-1.1 1.4-2.9 0-1.5-1.1-2.5-1.1-1-4-1.4l-1.5-0.2q-4.1-0.5-6.3-2.5-2.2-2-2.2-5.5 0-1.9 0.7-3.4 0.7-1.6 1.9-2.7 1.2-1.1 3-1.7 1.7-0.6 3.9-0.6 2.7 0 5 0.7 2.4 0.8 4.1 2.1 0.3 0.2 0.1 0.5l-2 3.1q-0.2 0.3-0.6 0.1-1.7-1.1-3.3-1.6-1.6-0.6-3.4-0.6-2.1 0-3.3 1.1-1.1 1-1.1 2.7 0 1.4 1.1 2.4 1.2 1 4 1.4l1.5 0.2q4.1 0.6 6.3 2.5 2.1 2 2.1 5.6 0 1.9-0.7 3.5-0.6 1.6-2 2.8-1.3 1.1-3.3 1.8-2 0.6-4.6 0.6zm15.8 7q-0.4 0-0.4-0.4v-26.5q0-0.4 0.4-0.4h3.8q0.4 0 0.4 0.4v1.5q0.7-1 2-1.7 1.3-0.7 3.3-0.7 2.6 0 4.3 1.2 1.8 1.2 2.6 3.6 0.4 1.2 0.5 2.4 0.2 1.2 0.2 3.2 0 2.1-0.2 3.3-0.1 1.2-0.5 2.3-0.8 2.4-2.6 3.6-1.7 1.2-4.3 1.2-2 0-3.3-0.6-1.3-0.7-2-1.7v8.9q0 0.4-0.4 0.4zm4.6-13.7q0.8 2.6 3.7 2.6 2.8 0 3.7-2.6 0.2-0.7 0.3-1.5 0.1-0.8 0.1-2.2 0-1.3-0.1-2.2-0.1-0.8-0.3-1.5-0.9-2.5-3.7-2.5-2.9 0-3.7 2.5-0.2 0.7-0.3 1.5-0.1 0.9-0.1 2.2 0 1.4 0.1 2.2 0.1 0.8 0.3 1.5zm25.2 6.7q-3 0-5.2-1.4-2.1-1.5-3-4.1-0.3-1-0.5-2.1-0.1-1.1-0.1-2.8 0-1.6 0.1-2.7 0.2-1.1 0.5-2.2 0.9-2.6 3-4 2.2-1.5 5.2-1.5 3.1 0 5.2 1.5 2.2 1.4 3 4 0.3 1.1 0.5 2.2 0.2 1.1 0.2 2.7 0 1.7-0.2 2.8-0.2 1.1-0.5 2.1-0.8 2.6-3 4.1-2.1 1.4-5.2 1.4zm0-4.1q1.4 0 2.4-0.7 0.9-0.7 1.4-1.9 0.2-0.8 0.3-1.6 0.1-0.8 0.1-2.1 0-1.2-0.1-2-0.1-0.8-0.3-1.6-0.5-1.3-1.4-2-1-0.6-2.4-0.6-1.4 0-2.3 0.6-1 0.7-1.4 2-0.3 0.8-0.3 1.6-0.1 0.8-0.1 2 0 1.3 0.1 2.1 0 0.8 0.3 1.6 0.4 1.2 1.4 1.9 0.9 0.7 2.3 0.7zm14.2 3.7q-0.4 0-0.4-0.4v-19.1q0-0.4 0.4-0.4h3.8q0.4 0 0.4 0.4v1.7h0.1q0.7-1.2 2-1.9 1.2-0.7 3.1-0.7 1.2 0 2.3 0.5 1.1 0.4 1.9 1.2 0.3 0.3 0.1 0.6l-2.2 2.7q-0.2 0.4-0.6 0.1-0.7-0.4-1.4-0.7-0.7-0.2-1.5-0.2-2 0-2.9 1.3-0.9 1.3-0.9 3.7v10.8q0 0.4-0.4 0.4zm22.9 0.2q-3 0-4.3-1.4-1.2-1.5-1.2-4.4v-10.5q0-0.2-0.3-0.2h-1.3q-0.4 0-0.4-0.4v-2.8q0-0.4 0.4-0.4h1.3q0.3 0 0.3-0.3v-5.4q0-0.4 0.4-0.4h3.8q0.4 0 0.4 0.4v5.4q0 0.3 0.2 0.3h2.7q0.4 0 0.4 0.4v2.8q0 0.4-0.4 0.4h-2.7q-0.2 0-0.2 0.2v10.3q0 1.1 0.4 1.5 0.5 0.4 1.4 0.4h1.1q0.4 0 0.4 0.4v3.3q0 0.4-0.4 0.4zm14.7 0.2q-3 0-5.1-1-2.2-0.9-3.4-2.1-0.3-0.3 0-0.6l2.4-2.5q0.2-0.2 0.5 0 1.1 1 2.7 1.7 1.6 0.6 3.2 0.6 1.8 0 2.7-0.6 0.9-0.7 0.9-1.7 0-0.9-0.7-1.5-0.6-0.5-2.6-0.7l-2.1-0.2q-3.1-0.4-4.6-1.9-1.5-1.4-1.5-4 0-2.9 2-4.6 1.9-1.7 5.7-1.7 2.3 0 4.2 0.7 1.9 0.7 3.3 1.8 0.3 0.2 0 0.5l-2 2.5q-0.2 0.3-0.6 0.1-0.9-0.7-2.3-1.2-1.4-0.5-2.9-0.5-1.4 0-2.2 0.6-0.8 0.6-0.8 1.5 0 0.8 0.7 1.4 0.6 0.5 2.6 0.7l2.1 0.2q3.2 0.3 4.7 1.8 1.5 1.5 1.5 4 0 3-2.1 4.9-2.1 1.8-6.3 1.8z"/>
			<g id="&lt;Group&gt;">
				<path id="&lt;Compound Path&gt;" fill-rule="evenodd" class="s0" d="m234.2 148.2c-0.5 0-1-0.2-1.4-0.6l-47.9-48c-0.7-0.6-0.8-1.5-0.3-2.3 0.4-0.8 1.3-1.1 2.1-0.9l75.7 20.3c0.7 0.1 1.2 0.7 1.4 1.3 0.2 0.7 0 1.4-0.5 1.9l-27.7 27.7c-0.4 0.4-0.9 0.6-1.4 0.6zm-41.5-46.2l41.5 41.5 24-24z"/>
				<path id="&lt;Compound Path&gt;" fill-rule="evenodd" class="s0" d="m289.6 92.8q-0.2 0-0.5-0.1c-0.6-0.2-1.2-0.7-1.3-1.4l-10.2-37.8c-0.1-0.7 0-1.4 0.5-1.9 0.5-0.5 1.2-0.6 1.9-0.5l37.8 10.2c0.7 0.1 1.2 0.7 1.4 1.3 0.2 0.7 0 1.4-0.5 1.9l-27.7 27.7c-0.4 0.4-0.9 0.6-1.4 0.6zm-7.4-37.1l8.4 31.4 23-23z"/>
				<path id="&lt;Compound Path&gt;" fill-rule="evenodd" class="s0" d="m186.2 100.2q-0.5 0-0.9-0.3c-0.8-0.4-1.2-1.3-0.9-2.1l17.5-65.6c0.2-0.7 0.7-1.2 1.4-1.4l65.6-17.5c0.8-0.3 1.7 0.1 2.1 0.9 0.5 0.7 0.4 1.7-0.3 2.3l-83.1 83.1c-0.4 0.4-0.9 0.6-1.4 0.6zm19.2-65.9l-15.4 57.5 72.9-72.9z"/>
				<path id="&lt;Compound Path&gt;" fill-rule="evenodd" class="s0" d="m317.3 65.1q-0.2 0-0.5-0.1l-75.6-20.3c-0.7-0.1-1.2-0.7-1.4-1.3-0.2-0.7 0-1.4 0.5-1.9l27.7-27.7c0.8-0.8 2-0.8 2.7 0l48 48c0.6 0.6 0.8 1.5 0.3 2.3-0.3 0.6-1 1-1.7 1zm-71.9-23.2l65.5 17.5-41.5-41.5z"/>
				<path id="&lt;Compound Path&gt;" fill-rule="evenodd" class="s0" d="m234.2 148.2c-0.7 0-1.3-0.4-1.7-1-0.4-0.7-0.3-1.7 0.3-2.3l83.2-83.1c0.6-0.7 1.6-0.8 2.3-0.3 0.8 0.4 1.1 1.3 0.9 2.1l-17.5 65.6c-0.2 0.7-0.7 1.2-1.4 1.4l-65.6 17.5q-0.2 0.1-0.5 0.1zm79.4-78.6l-72.9 72.9 57.5-15.4z"/>
				<path id="&lt;Compound Path&gt;" fill-rule="evenodd" class="s0" d="m224.1 110.3q-0.3 0-0.5 0l-37.9-10.2c-0.6-0.1-1.2-0.7-1.3-1.3-0.2-0.7 0-1.4 0.5-1.9l27.7-27.7c0.5-0.5 1.2-0.7 1.8-0.5 0.7 0.2 1.2 0.7 1.4 1.4l10.1 37.8c0.2 0.7 0 1.4-0.5 1.9-0.3 0.3-0.8 0.5-1.3 0.5zm-34.1-13l31.3 8.4-8.4-31.4z"/>
			</g>
		</g>
	</g>
</svg>