<svg version="1.2" xmlns="http://www.w3.org/2000/svg" viewBox="0 0 273 61" width="273" height="61"><style>.a{fill:#fff}</style><path fill-rule="evenodd" class="a" d="m235.2 59.2q-0.4 0-0.6-0.2l-20.3-20.3c-0.2-0.3-0.3-0.7-0.1-1 0.2-0.3 0.6-0.5 0.9-0.4l32 8.6c0.3 0.1 0.5 0.3 0.6 0.6 0 0.3 0 0.6-0.2 0.8l-11.7 11.7q-0.3 0.2-0.6 0.2zm-17.6-19.5l17.6 17.5 10.1-10.1z"/><path fill-rule="evenodd" class="a" d="m258.6 35.8q-0.1 0-0.2 0c-0.3-0.1-0.5-0.3-0.6-0.6l-4.3-16c-0.1-0.3 0-0.6 0.2-0.8 0.2-0.2 0.5-0.2 0.8-0.2l16 4.3c0.3 0.1 0.5 0.3 0.6 0.6 0 0.3 0 0.6-0.2 0.8l-11.7 11.7q-0.3 0.2-0.6 0.2zm-3.1-15.6l3.5 13.2 9.7-9.7z"/><path fill-rule="evenodd" class="a" d="m214.9 38.9q-0.2 0-0.4-0.1c-0.3-0.1-0.5-0.5-0.4-0.9l7.4-27.7c0.1-0.2 0.3-0.5 0.6-0.5l27.7-7.5c0.4-0.1 0.7 0.1 0.9 0.4 0.2 0.3 0.2 0.7-0.1 1l-35.1 35.1q-0.3 0.2-0.6 0.2zm8.1-27.8l-6.5 24.3 30.8-30.8z"/><path fill-rule="evenodd" class="a" d="m270.3 24.1q-0.1 0-0.2 0l-32-8.6c-0.3-0.1-0.5-0.3-0.6-0.6-0.1-0.2 0-0.5 0.2-0.7l11.7-11.7c0.4-0.4 0.9-0.4 1.2 0l20.3 20.2c0.2 0.3 0.3 0.7 0.1 1-0.2 0.3-0.4 0.4-0.7 0.4zm-30.4-9.8l27.6 7.4-17.5-17.5z"/><path fill-rule="evenodd" class="a" d="m235.2 59.2c-0.3 0-0.6-0.1-0.7-0.4-0.2-0.3-0.2-0.7 0.1-1l35.1-35.1c0.3-0.2 0.7-0.3 1-0.1 0.3 0.2 0.5 0.6 0.4 0.9l-7.4 27.7c-0.1 0.3-0.3 0.5-0.6 0.6l-27.7 7.4q-0.1 0-0.2 0zm33.5-33.2l-30.8 30.8 24.3-6.5z"/><path fill-rule="evenodd" class="a" d="m230.9 43.2q-0.1 0-0.2 0l-16-4.3c-0.3-0.1-0.5-0.3-0.6-0.6-0.1-0.2 0-0.5 0.2-0.7l11.7-11.7c0.2-0.3 0.5-0.3 0.8-0.3 0.3 0.1 0.5 0.3 0.6 0.6l4.3 16c0.1 0.3 0 0.6-0.2 0.8q-0.3 0.2-0.6 0.2zm-14.4-5.5l13.2 3.6-3.5-13.3z"/><path fill-rule="evenodd" class="a" d="m7.9 16v-0.7q0-0.2 0.1-0.2h1.6q0.2 0 0.2 0.2v5.5q0 0.5 0.2 0.7 0.2 0.2 0.6 0.2h0.6q0.7 0 0.7 0.8 0 0.5-0.2 0.7-0.1 0.1-0.5 0.1h-1.3q-0.9 0-1.3-0.2-0.5-0.3-0.7-1.1-0.3 0.3-0.8 0.5-0.5 0.2-1 0.2-0.7 0-1.3-0.2-0.6-0.2-1-0.6-0.4-0.4-0.7-1-0.2-0.6-0.2-1.4 0-1 0.2-1.7 0.3-0.6 0.8-1 0.5-0.4 1.1-0.6 0.5-0.2 1.2-0.2zm-3.2-2q-0.2 0-0.2-0.2v-1.5q0-0.1 0.2-0.1h1.4q0.1 0 0.1 0.1v1.5q0 0.2-0.1 0.2zm1.6 7q0.8 0 1.2-0.5 0.4-0.5 0.4-1.3v-1.5h-1.5q-0.7 0-1.2 0.4-0.4 0.4-0.4 1.4 0 0.7 0.4 1.1 0.4 0.4 1.1 0.4zm0.6-7q-0.2 0-0.2-0.2v-1.5q0-0.1 0.2-0.1h1.4q0.2 0 0.2 0.1v1.5q0 0.2-0.2 0.2z"/><path class="a" d="m11.4 23.3q-0.3 0-0.4-0.1-0.2-0.2-0.2-0.6 0-0.6 0.2-0.7 0.1-0.2 0.4-0.2h2.1q0.3 0 0.5 0.2 0.1 0.1 0.1 0.6 0 0.5-0.1 0.7-0.2 0.1-0.5 0.1z"/><path class="a" d="m13.5 23.3q-0.4 0-0.5-0.1-0.1-0.2-0.1-0.6 0-0.6 0.1-0.7 0.1-0.2 0.5-0.2h2q0.3 0 0.5 0.2 0.2 0.1 0.2 0.6 0 0.5-0.2 0.7-0.1 0.1-0.5 0.1z"/><path class="a" d="m15.5 23.3q-0.3 0-0.5-0.1-0.1-0.2-0.1-0.6 0-0.6 0.1-0.7 0.1-0.2 0.5-0.2h2q0.4 0 0.5 0.2 0.2 0.1 0.2 0.6 0 0.5-0.2 0.7-0.1 0.1-0.5 0.1z"/><path class="a" d="m17.5 23.3q-0.3 0-0.4-0.1-0.2-0.2-0.2-0.6 0-0.6 0.2-0.7 0.1-0.2 0.4-0.2h2.1q0.3 0 0.5 0.2 0.1 0.1 0.1 0.6 0 0.5-0.1 0.7-0.2 0.1-0.5 0.1z"/><path class="a" d="m19.6 23.3q-0.4 0-0.5-0.1-0.1-0.2-0.1-0.6 0-0.6 0.1-0.7 0.1-0.2 0.5-0.2h2q0.3 0 0.5 0.2 0.2 0.1 0.2 0.6 0 0.5-0.2 0.7-0.2 0.1-0.5 0.1z"/><path class="a" d="m21.6 23.3q-0.3 0-0.5-0.1-0.1-0.2-0.1-0.6 0-0.6 0.1-0.7 0.1-0.2 0.5-0.2h2q0.4 0 0.5 0.2 0.2 0.1 0.2 0.6 0 0.5-0.2 0.7-0.1 0.1-0.5 0.1z"/><path class="a" d="m23.6 23.3q-0.3 0-0.4-0.1-0.2-0.2-0.2-0.6 0-0.6 0.1-0.7 0.2-0.2 0.5-0.2h2.1q0.3 0 0.5 0.2 0.1 0.1 0.1 0.6 0 0.5-0.1 0.7-0.2 0.1-0.5 0.1z"/><path class="a" d="m25.7 23.3q-0.4 0-0.5-0.1-0.1-0.2-0.1-0.6 0-0.6 0.1-0.7 0.1-0.2 0.5-0.2h2q0.3 0 0.5 0.2 0.2 0.1 0.2 0.6 0 0.5-0.2 0.7-0.2 0.1-0.5 0.1z"/><path class="a" d="m27.7 23.3q-0.4 0-0.5-0.1-0.1-0.2-0.1-0.6 0-0.6 0.1-0.7 0.1-0.2 0.5-0.2h2q0.4 0 0.5 0.2 0.2 0.1 0.2 0.6 0 0.5-0.2 0.7-0.1 0.1-0.5 0.1z"/><path fill-rule="evenodd" class="a" d="m33.3 17q0.7-0.4 1.7-0.7 1-0.3 2-0.3 1.1 0 1.9 0.3 0.8 0.3 1.3 0.8 0.5 0.5 0.7 1.3 0.2 0.8 0.2 1.7 0 1-0.1 1.6-0.2 0.7-0.6 1-0.4 0.4-1 0.5-0.7 0.1-1.6 0.1h-3.1q-0.3 0-0.6 0-0.4 0-0.7 0-0.3 0-0.5-0.1-0.3 0-0.4-0.1-0.3 0.2-0.7 0.2-0.3 0-0.8 0h-1.3q-0.3 0-0.5-0.1-0.2-0.2-0.2-0.6 0-0.6 0.2-0.8 0.2-0.1 0.5-0.1h0.9q0.3 0 0.4-0.1 0.2-0.1 0.2-0.2 0.1-0.2 0.1-0.5 0-0.2 0-0.6v-3.9q0-0.1 0.2-0.1h1.6q0.2 0 0.2 0.1zm3.4 0.8q-0.9 0-1.8 0.3-0.9 0.2-1.6 0.6v2.3q0 0.2-0.1 0.4 0 0.2 0 0.3h3.7q0.7 0 1.1 0 0.5 0 0.7-0.2 0.3-0.1 0.4-0.5 0-0.3 0-1 0-0.5-0.1-0.9-0.1-0.4-0.4-0.7-0.2-0.3-0.7-0.5-0.4-0.1-1.2-0.1zm-0.7-3.1q-0.1 0-0.1-0.2v-1.4q0-0.2 0.1-0.2h1.7q0.1 0 0.1 0.2v1.4q0 0.2-0.1 0.2z"/><path class="a" d="m43.1 12q0-0.2 0.2-0.2h1.5q0.2 0 0.2 0.2v8.8q0 0.5 0.2 0.7 0.2 0.2 0.6 0.2h0.6q0.4 0 0.5 0.2 0.2 0.2 0.2 0.6 0 0.6-0.2 0.7-0.1 0.1-0.5 0.1h-1.3q-1.1 0-1.5-0.5-0.5-0.5-0.5-1.6z"/><path class="a" d="m46.4 23.3q-0.3 0-0.4-0.1-0.2-0.2-0.2-0.6 0-0.6 0.1-0.7 0.2-0.2 0.5-0.2h2.1q0.3 0 0.5 0.2 0.1 0.1 0.1 0.6 0 0.5-0.1 0.7-0.2 0.1-0.5 0.1z"/><path class="a" d="m48.5 23.3q-0.4 0-0.5-0.1-0.1-0.2-0.1-0.6 0-0.6 0.1-0.7 0.1-0.2 0.5-0.2h2q0.3 0 0.5 0.2 0.2 0.1 0.2 0.6 0 0.5-0.2 0.7-0.2 0.1-0.5 0.1z"/><path class="a" d="m50.5 23.3q-0.4 0-0.5-0.1-0.1-0.2-0.1-0.6 0-0.6 0.1-0.7 0.1-0.2 0.5-0.2h2q0.4 0 0.5 0.2 0.2 0.1 0.2 0.6 0 0.5-0.2 0.7-0.1 0.1-0.5 0.1z"/><path class="a" d="m52.5 23.3q-0.3 0-0.5-0.1-0.2-0.2-0.2-0.6 0-0.5 0.2-0.7 0.2-0.2 0.5-0.2h1.1q0.4 0 0.6-0.2 0.2-0.2 0.2-0.7v-4.3q0-0.2 0.2-0.2h1.6q0.1 0 0.1 0.2v4.7q0 1.1-0.4 1.6-0.5 0.5-1.5 0.5zm0.6 3.3q-0.2 0-0.2-0.2v-1.4q0-0.2 0.2-0.2h1.4q0.2 0 0.2 0.2v1.4q0 0.2-0.2 0.2zm2.2 0q-0.1 0-0.1-0.2v-1.4q0-0.2 0.1-0.2h1.4q0.2 0 0.2 0.2v1.4q0 0.2-0.2 0.2z"/><path class="a" d="m59.4 16.5q0-0.2 0.2-0.2h1.6q0.2 0 0.2 0.2v4.1q0 0.5 0.3 0.8 0.4 0.3 1.1 0.3h0.2q0.4 0 0.6 0.2 0.1 0.1 0.1 0.6 0 0.5-0.1 0.7-0.2 0.1-0.6 0.1-0.5 0-0.9-0.1-0.5-0.1-0.7-0.4v0.3q0 0.9-0.2 1.6-0.2 0.7-0.5 1.2-0.3 0.4-0.9 0.6-0.6 0.3-1.4 0.3h-0.7q-0.1 0-0.1-0.2v-1.4q0-0.1 0.1-0.1h0.4q0.5 0 0.8-0.2 0.2-0.2 0.4-0.5 0.1-0.3 0.1-0.8 0-0.5 0-1.1z"/><path class="a" d="m63.9 21.7q0.4 0 0.6-0.2 0.2-0.2 0.2-0.7v-8.8q0-0.2 0.2-0.2h1.5q0.2 0 0.2 0.2v8.6q0 0.5 0.4 0.8 0.4 0.3 1 0.3h0.3q0.3 0 0.5 0.2 0.2 0.1 0.2 0.6 0 0.5-0.2 0.7-0.2 0.1-0.5 0.1-0.7 0-1.2-0.1-0.5-0.2-0.7-0.7-0.3 0.5-0.7 0.7-0.5 0.1-1.2 0.1h-1.5q-0.3 0-0.5-0.1-0.1-0.2-0.1-0.7 0-0.5 0.1-0.6 0.2-0.2 0.5-0.2z"/><path class="a" d="m68.3 23.3q-0.3 0-0.5-0.1-0.2-0.2-0.2-0.7 0-0.4 0.2-0.6 0.1-0.2 0.5-0.2h0.8q0.4 0 0.6-0.2 0.2-0.2 0.2-0.7v-8.8q0-0.2 0.2-0.2h1.6q0.1 0 0.1 0.2v9.2q0 1.1-0.4 1.6-0.5 0.5-1.5 0.5z"/><path fill-rule="evenodd" class="a" d="m82.6 16v-0.7q0-0.2 0.2-0.2h1.6q0.1 0 0.1 0.2v5.5q0 0.5 0.2 0.7 0.2 0.2 0.6 0.2h0.7q0.7 0 0.7 0.8 0 0.5-0.2 0.7-0.2 0.1-0.5 0.1h-1.4q-0.8 0-1.3-0.2-0.5-0.3-0.6-1.1-0.4 0.3-0.9 0.5-0.4 0.2-1 0.2-0.6 0-1.2-0.2-0.6-0.2-1-0.6-0.5-0.4-0.7-1-0.3-0.6-0.3-1.4 0-1 0.3-1.7 0.3-0.6 0.7-1 0.5-0.4 1.1-0.6 0.6-0.2 1.2-0.2zm-3.2-2q-0.2 0-0.2-0.2v-1.5q0-0.1 0.2-0.1h1.4q0.2 0 0.2 0.1v1.5q0 0.2-0.2 0.2zm1.7 7q0.8 0 1.2-0.5 0.4-0.5 0.4-1.3v-1.5h-1.6q-0.7 0-1.1 0.4-0.5 0.4-0.5 1.4 0 0.7 0.4 1.1 0.5 0.4 1.2 0.4zm0.5-7q-0.1 0-0.1-0.2v-1.5q0-0.1 0.1-0.1h1.4q0.2 0 0.2 0.1v1.5q0 0.2-0.2 0.2z"/><path class="a" d="m86.2 23.3q-0.4 0-0.5-0.1-0.1-0.2-0.1-0.6 0-0.6 0.1-0.7 0.1-0.2 0.5-0.2h2q0.4 0 0.5 0.2 0.2 0.1 0.2 0.6 0 0.5-0.2 0.7-0.1 0.1-0.5 0.1z"/><path class="a" d="m88.2 23.3q-0.3 0-0.5-0.1-0.1-0.2-0.1-0.6 0-0.6 0.1-0.7 0.2-0.2 0.5-0.2h2q0.4 0 0.6 0.2 0.1 0.1 0.1 0.6 0 0.5-0.1 0.7-0.2 0.1-0.6 0.1z"/><path class="a" d="m90.2 23.3q-0.3 0-0.4-0.1-0.1-0.2-0.1-0.6 0-0.6 0.1-0.7 0.1-0.2 0.4-0.2h2.1q0.3 0 0.5 0.2 0.2 0.1 0.2 0.6 0 0.5-0.2 0.7-0.2 0.1-0.5 0.1z"/><path class="a" d="m92.3 23.3q-0.4 0-0.5-0.1-0.1-0.2-0.1-0.6 0-0.6 0.1-0.7 0.1-0.2 0.5-0.2h2q0.3 0 0.5 0.2 0.2 0.1 0.2 0.6 0 0.5-0.2 0.7-0.1 0.1-0.5 0.1z"/><path class="a" d="m94.3 23.3q-0.3 0-0.5-0.1-0.1-0.2-0.1-0.6 0-0.6 0.1-0.7 0.2-0.2 0.5-0.2h2q0.4 0 0.5 0.2 0.2 0.1 0.2 0.6 0 0.5-0.1 0.7-0.2 0.1-0.6 0.1z"/><path class="a" d="m96.3 23.3q-0.3 0-0.4-0.1-0.2-0.2-0.2-0.6 0-0.6 0.2-0.7 0.1-0.2 0.4-0.2h2.1q0.3 0 0.5 0.2 0.1 0.1 0.1 0.6 0 0.5-0.1 0.7-0.2 0.1-0.5 0.1z"/><path fill-rule="evenodd" class="a" d="m103.5 23.5q-0.8 0-1.5-0.3-0.7-0.2-1.1-0.7-0.2 0.3-0.4 0.4-0.3 0.2-0.5 0.3-0.3 0.1-0.5 0.1-0.3 0-0.5 0h-0.6q-0.4 0-0.5-0.1-0.2-0.2-0.2-0.7 0-0.5 0.2-0.7 0.1-0.1 0.5-0.1h0.6q0.2 0 0.4-0.1 0.2-0.1 0.3-0.3 0.2-0.1 0.3-0.4 0.1-0.3 0.1-0.8 0-0.1 0-0.2v-0.3q0-1 0.3-1.6 0.2-0.7 0.7-1.2 0.5-0.4 1.1-0.6 0.6-0.2 1.3-0.2 0.8 0 1.4 0.2 0.7 0.2 1.1 0.7 0.5 0.4 0.8 1.1 0.2 0.8 0.2 1.8 0 1-0.2 1.7-0.3 0.7-0.7 1.1-0.5 0.5-1.1 0.7-0.7 0.2-1.5 0.2zm0-5.8q-0.8 0-1.2 0.5-0.3 0.6-0.3 1.6 0 1 0.3 1.5 0.4 0.5 1.2 0.5 0.9 0 1.3-0.5 0.4-0.5 0.4-1.5 0-2.1-1.7-2.1z"/><path class="a" d="m109 12q0-0.2 0.2-0.2h1.6q0.1 0 0.1 0.2v8.8q0 0.5 0.2 0.7 0.2 0.2 0.6 0.2h0.6q0.4 0 0.5 0.2 0.2 0.2 0.2 0.6 0 0.6-0.1 0.7-0.2 0.1-0.6 0.1h-1.3q-1.1 0-1.5-0.5-0.5-0.5-0.5-1.6z"/><path class="a" d="m112.3 23.3q-0.3 0-0.4-0.1-0.2-0.2-0.2-0.6 0-0.6 0.2-0.7 0.1-0.2 0.4-0.2h2.1q0.3 0 0.5 0.2 0.1 0.1 0.1 0.6 0 0.5-0.1 0.7-0.2 0.1-0.5 0.1z"/><path class="a" d="m114.4 23.3q-0.4 0-0.5-0.1-0.1-0.2-0.1-0.6 0-0.6 0.1-0.7 0.1-0.2 0.5-0.2h2q0.3 0 0.5 0.2 0.2 0.1 0.2 0.6 0 0.5-0.2 0.7-0.1 0.1-0.5 0.1z"/><path class="a" d="m116.4 23.3q-0.3 0-0.5-0.1-0.1-0.2-0.1-0.6 0-0.6 0.1-0.7 0.1-0.2 0.5-0.2h2q0.4 0 0.5 0.2 0.2 0.1 0.2 0.6 0 0.5-0.2 0.7-0.1 0.1-0.5 0.1z"/><path class="a" d="m118.4 23.3q-0.3 0-0.4-0.1-0.2-0.2-0.2-0.6 0-0.6 0.2-0.7 0.1-0.2 0.4-0.2h2.1q0.3 0 0.5 0.2 0.1 0.1 0.1 0.6 0 0.5-0.1 0.7-0.2 0.1-0.5 0.1z"/><path class="a" d="m120.5 23.3q-0.4 0-0.5-0.1-0.1-0.2-0.1-0.6 0-0.6 0.1-0.7 0.1-0.2 0.5-0.2h2q0.3 0 0.5 0.2 0.2 0.1 0.2 0.6 0 0.5-0.2 0.7-0.2 0.1-0.5 0.1z"/><path class="a" d="m122.5 23.3q-0.3 0-0.5-0.1-0.1-0.2-0.1-0.6 0-0.6 0.1-0.7 0.1-0.2 0.5-0.2h2q0.4 0 0.5 0.2 0.2 0.1 0.2 0.6 0 0.5-0.2 0.7-0.1 0.1-0.5 0.1z"/><path class="a" d="m124.5 23.3q-0.3 0-0.4-0.1-0.2-0.2-0.2-0.6 0-0.6 0.1-0.7 0.2-0.2 0.5-0.2h2.1q0.3 0 0.5 0.2 0.1 0.1 0.1 0.6 0 0.5-0.1 0.7-0.2 0.1-0.5 0.1z"/><path class="a" d="m126.6 23.3q-0.4 0-0.5-0.1-0.1-0.2-0.1-0.6 0-0.6 0.1-0.7 0.1-0.2 0.5-0.2h2q0.3 0 0.5 0.2 0.2 0.1 0.2 0.6 0 0.5-0.2 0.7-0.2 0.1-0.5 0.1z"/><path fill-rule="evenodd" class="a" d="m133.3 16q2 0 2.9 0.7 0.9 0.8 0.9 2 0 0.5-0.2 0.9-0.2 0.5-0.4 0.8-0.3 0.4-0.6 0.7-0.3 0.3-0.6 0.5 0.1 0.1 0.3 0.1h2.4q0.4 0 0.6 0.2 0.1 0.2 0.1 0.7 0 0.4-0.2 0.6-0.1 0.1-0.5 0.1h-2.5q-0.6 0-1.1-0.1-0.6-0.1-1.1-0.4-0.5 0.3-1.2 0.4-0.6 0.1-1.1 0.1h-2.4q-0.3 0-0.5-0.1-0.2-0.2-0.2-0.6 0-0.5 0.1-0.7 0.1-0.2 0.6-0.2h2q0.2 0 0.6-0.1 0.3 0 0.8-0.1-0.2-0.5-0.4-0.9-0.2-0.4-0.5-0.8-0.3-0.3-0.6-0.5-0.4-0.3-0.7-0.5-0.2-0.1-0.2-0.3 0-0.1 0-0.2v-1.1q0-0.1 0.3-0.4 0.3-0.2 0.8-0.4 0.6-0.1 1.2-0.3 0.7-0.1 1.4-0.1zm0.3 5.1q0.2-0.1 0.5-0.4 0.3-0.2 0.5-0.5 0.2-0.3 0.4-0.6 0.1-0.3 0.1-0.7 0-0.6-0.5-0.9-0.5-0.3-1.3-0.3-0.7 0-1.2 0.1-0.5 0.2-0.6 0.3 0.7 0.5 1.3 1.3 0.5 0.8 0.8 1.7z"/><path class="a" d="m138 23.3q-0.3 0-0.5-0.1-0.1-0.2-0.1-0.7 0-0.4 0.1-0.6 0.2-0.2 0.5-0.2h0.9q0.4 0 0.6-0.2 0.2-0.2 0.2-0.7v-8.8q0-0.2 0.2-0.2h1.5q0.2 0 0.2 0.2v9.2q0 1.1-0.5 1.6-0.4 0.5-1.5 0.5z"/><path class="a" d="m145.7 23.2q0 0.1-0.2 0.1h-1.5q-0.2 0-0.2-0.1v-11.2q0-0.2 0.2-0.2h1.5q0.2 0 0.2 0.2z"/><path fill-rule="evenodd" class="a" d="m156.5 16v-0.7q0-0.2 0.2-0.2h1.5q0.2 0 0.2 0.2v5.5q0 0.5 0.2 0.7 0.2 0.2 0.6 0.2h0.6q0.7 0 0.7 0.8 0 0.5-0.1 0.7-0.2 0.1-0.6 0.1h-1.3q-0.9 0-1.3-0.2-0.5-0.3-0.6-1.1-0.4 0.3-0.9 0.5-0.5 0.2-1 0.2-0.7 0-1.3-0.2-0.5-0.2-1-0.6-0.4-0.4-0.7-1-0.2-0.6-0.2-1.4 0-1 0.3-1.7 0.2-0.6 0.7-1 0.5-0.4 1.1-0.6 0.6-0.2 1.2-0.2zm-3.2-2q-0.2 0-0.2-0.2v-1.5q0-0.1 0.2-0.1h1.4q0.2 0 0.2 0.1v1.5q0 0.2-0.2 0.2zm1.6 7q0.8 0 1.2-0.5 0.4-0.5 0.4-1.3v-1.5h-1.5q-0.7 0-1.1 0.4-0.5 0.4-0.5 1.4 0 0.7 0.4 1.1 0.4 0.4 1.1 0.4zm0.6-7q-0.2 0-0.2-0.2v-1.5q0-0.1 0.2-0.1h1.4q0.2 0 0.2 0.1v1.5q0 0.2-0.2 0.2z"/><path class="a" d="m160.1 23.3q-0.4 0-0.5-0.1-0.1-0.2-0.1-0.6 0-0.6 0.1-0.7 0.1-0.2 0.5-0.2h2q0.3 0 0.5 0.2 0.2 0.1 0.2 0.6 0 0.5-0.2 0.7-0.2 0.1-0.5 0.1z"/><path class="a" d="m162.1 23.3q-0.4 0-0.5-0.1-0.1-0.2-0.1-0.6 0-0.6 0.1-0.7 0.1-0.2 0.5-0.2h2q0.4 0 0.5 0.2 0.2 0.1 0.2 0.6 0 0.5-0.2 0.7-0.1 0.1-0.5 0.1z"/><path class="a" d="m164.1 23.3q-0.3 0-0.5-0.1-0.1-0.2-0.1-0.6 0-0.6 0.1-0.7 0.2-0.2 0.5-0.2h2q0.4 0 0.6 0.2 0.1 0.1 0.1 0.6 0 0.5-0.1 0.7-0.2 0.1-0.6 0.1z"/><path class="a" d="m166.1 23.3q-0.3 0-0.4-0.1-0.1-0.2-0.1-0.6 0-0.6 0.1-0.7 0.1-0.2 0.4-0.2h2.1q0.3 0 0.5 0.2 0.2 0.1 0.2 0.6 0 0.5-0.2 0.7-0.2 0.1-0.5 0.1z"/><path class="a" d="m168.2 23.3q-0.4 0-0.5-0.1-0.1-0.2-0.1-0.6 0-0.6 0.1-0.7 0.1-0.2 0.5-0.2h2q0.3 0 0.5 0.2 0.2 0.1 0.2 0.6 0 0.5-0.2 0.7-0.1 0.1-0.5 0.1z"/><path class="a" d="m173.8 20.6q0 0.5 0.4 0.8 0.4 0.3 1.1 0.3h0.2q0.4 0 0.5 0.2 0.2 0.1 0.2 0.6 0 0.5-0.1 0.7-0.2 0.1-0.6 0.1-0.6 0-1.1-0.1-0.5-0.2-0.8-0.7-0.2 0.5-0.7 0.7-0.5 0.1-1.3 0.1h-1.3q-0.3 0-0.5-0.1-0.2-0.1-0.2-0.4 0-0.5 0.2-0.8 0.1-0.3 0.5-0.3h0.8q0.3 0 0.5-0.1 0.1-0.1 0.2-0.3 0.1-0.2 0.1-0.5 0-0.3 0-0.7v-3.6q0-0.2 0.2-0.2h1.6q0.1 0 0.1 0.2zm-2.2-6.8q-0.2-0.2-0.2-0.4-0.1-0.2-0.1-0.5 0-0.3 0.1-0.6 0.1-0.3 0.3-0.5 0.2-0.2 0.6-0.4 0.4-0.1 0.9-0.1 0.5 0 0.9 0.1 0.4 0.2 0.6 0.5 0.1 0.1 0 0.2l-0.5 0.5q-0.1 0-0.1-0.1-0.2-0.1-0.4-0.2-0.2-0.1-0.5-0.1-0.4 0-0.7 0.2-0.2 0.2-0.2 0.5 0 0.4 0.2 0.6 0.2 0.2 0.4 0.3h1.8q0.1 0 0.1 0.1v0.7q0 0.1-0.1 0.1h-3.7q-0.1 0-0.1-0.1v-0.7q0-0.1 0.1-0.1z"/><path class="a" d="m175.5 23.3q-0.4 0-0.5-0.1-0.1-0.2-0.1-0.6 0-0.6 0.1-0.7 0.1-0.2 0.5-0.2h2q0.3 0 0.5 0.2 0.2 0.1 0.2 0.6 0 0.5-0.2 0.7-0.2 0.1-0.5 0.1z"/><path class="a" d="m177.5 23.3q-0.4 0-0.5-0.1-0.1-0.2-0.1-0.6 0-0.6 0.1-0.7 0.1-0.2 0.5-0.2h2q0.4 0 0.5 0.2 0.2 0.1 0.2 0.6 0 0.5-0.2 0.7-0.1 0.1-0.5 0.1z"/><path class="a" d="m183.2 22.5q-0.2 0.5-0.7 0.7-0.5 0.1-1.3 0.1h-1.6q-0.3 0-0.5-0.1-0.2-0.2-0.2-0.6 0-0.5 0.2-0.7 0.1-0.2 0.5-0.2h1.1q0.3 0 0.5-0.1 0.1-0.1 0.2-0.3 0.1-0.2 0.1-0.5 0-0.3 0-0.8v-3.5q0-0.1 0.1-0.1 0.1-0.1 0.2-0.1h1.5q0.1 0 0.1 0.2v4.1q0 0.5 0.4 0.8 0.4 0.3 1 0.3h0.3q0.4 0 0.5 0.2 0.2 0.1 0.2 0.6 0 0.5-0.2 0.7-0.1 0.1-0.5 0.1-0.6 0-1.1-0.1-0.5-0.2-0.8-0.7zm-2.7 4.1q-0.1 0-0.1-0.2v-1.4q0-0.2 0.1-0.2h1.5q0.1 0 0.1 0.2v1.4q0 0.2-0.1 0.2zm2.2 0q-0.2 0-0.2-0.2v-1.4q0-0.2 0.2-0.2h1.4q0.2 0 0.2 0.2v1.4q0 0.2-0.2 0.2z"/><path fill-rule="evenodd" class="a" d="m184.4 22.5q0-0.5 0.2-0.7 0.2-0.1 0.5-0.1h1.7v-2q0-1 0.3-1.7 0.3-0.7 0.7-1.2 0.5-0.4 1.1-0.6 0.6-0.2 1.3-0.2 0.7 0 1.4 0.2 0.6 0.2 1.1 0.6 0.5 0.4 0.7 1.1 0.3 0.6 0.3 1.5 0 0.7-0.2 1.3-0.2 0.6-0.4 1h1.7q0.4 0 0.5 0.1 0.2 0.2 0.2 0.7 0 0.5-0.2 0.7-0.1 0.1-0.5 0.1h-1.6q0.3 0.5 0.3 1.2 0 1.2-0.9 1.8-0.8 0.7-2.4 0.7-0.7 0-1.4-0.2-0.6-0.1-1.1-0.4-0.4-0.4-0.7-0.9-0.2-0.5-0.2-1.2v-1h-1.7q-0.7 0-0.7-0.8zm5.8-4.8q-0.7 0-1.1 0.5-0.4 0.5-0.4 1.4v2.1h1.6q0.4 0 0.7-0.2 0.3-0.2 0.5-0.4 0.1-0.3 0.2-0.7 0.1-0.4 0.1-0.7 0-1-0.4-1.5-0.4-0.5-1.2-0.5zm0 7.6q0.8 0 1.1-0.2 0.4-0.3 0.4-0.8 0-0.2-0.1-0.4-0.1-0.2-0.2-0.3-0.2-0.2-0.5-0.3-0.3 0-0.8 0h-1.4v0.9q0 1.1 1.5 1.1z"/><path class="a" d="m194.8 23.3q-0.3 0-0.5-0.1-0.2-0.2-0.2-0.7 0-0.4 0.2-0.6 0.1-0.2 0.5-0.2h0.8q0.5 0 0.6-0.2 0.2-0.2 0.2-0.7v-8.8q0-0.2 0.2-0.2h1.6q0.2 0 0.2 0.2v9.2q0 1.1-0.5 1.6-0.5 0.5-1.5 0.5z"/><path class="a" d="m202.5 23.2q0 0.1-0.2 0.1h-1.6q-0.1 0-0.1-0.1v-11.2q0-0.2 0.1-0.2h1.6q0.2 0 0.2 0.2z"/><path class="a" d="m3.2 44.5q-0.1-0.3-0.2-0.5 0-0.3-0.1-0.7 0-0.3 0-0.8 0-0.5 0-1.2 0-0.6 0-1.1 0-0.5 0-0.8 0.1-0.4 0.1-0.7 0.1-0.2 0.2-0.5 0.4-1.4 1.5-2.1 1.1-0.7 2.6-0.7 0.8 0 1.5 0.2 0.6 0.2 1.1 0.5 0.5 0.4 0.9 0.8 0.3 0.5 0.5 0.9 0.1 0.2-0.1 0.3l-1.4 0.6q-0.1 0.1-0.2-0.1-0.4-0.7-0.9-1-0.6-0.4-1.4-0.4-0.9 0-1.4 0.4-0.6 0.4-0.8 1.1 0 0.2-0.1 0.4 0 0.2 0 0.5-0.1 0.3-0.1 0.7 0 0.4 0 1 0 0.7 0 1.1 0 0.4 0.1 0.7 0 0.3 0 0.5 0.1 0.2 0.1 0.4 0.2 0.7 0.8 1.1 0.5 0.4 1.4 0.4 0.7 0 1.3-0.4 0.6-0.3 0.9-1 0-0.3 0.1-0.7 0-0.3 0-0.8 0-0.1-0.1-0.1h-1.8q-0.2 0-0.2-0.2v-1.4q0-0.1 0.2-0.1h3.8q0.1 0 0.1 0.1v1q0 0.8 0 1.4-0.1 0.7-0.2 1.2-0.5 1.3-1.5 2.1-1.1 0.7-2.6 0.7-1.5 0-2.6-0.7-1.1-0.7-1.5-2.1z"/><path fill-rule="evenodd" class="a" d="m17 47.3q-1.3 0-2.1-0.6-0.9-0.6-1.3-1.7-0.1-0.4-0.2-0.9 0-0.4 0-1.1 0-0.6 0-1.1 0.1-0.5 0.2-0.9 0.4-1.1 1.3-1.6 0.8-0.6 2.1-0.6 1.2 0 2.1 0.6 0.9 0.6 1.2 1.6 0.1 0.2 0.1 0.4 0.1 0.3 0.1 0.6 0 0.2 0.1 0.6 0 0.4 0 0.9 0 0.1-0.2 0.1h-5q-0.1 0-0.1 0.1 0 0.2 0 0.4 0 0.1 0.1 0.3 0.4 1.2 1.8 1.2 0.7 0 1.2-0.2 0.4-0.2 0.7-0.6 0.2-0.1 0.3 0l1 0.9q0.1 0.1 0 0.2-0.5 0.6-1.4 1-0.8 0.4-2 0.4zm1.7-5.2q0-0.4-0.1-0.7-0.2-0.5-0.6-0.8-0.4-0.2-1-0.2-0.6 0-1 0.2-0.5 0.3-0.6 0.8-0.1 0.3-0.1 0.7 0 0.1 0.1 0.1h3.2q0.1 0 0.1-0.1z"/><path class="a" d="m27.8 47.1q-0.2 0-0.2-0.2v-4.7q0-0.8-0.4-1.3-0.4-0.4-1.1-0.4-0.8 0-1.2 0.4-0.4 0.5-0.4 1.3v4.7q0 0.2-0.2 0.2h-1.5q-0.2 0-0.2-0.2v-7.8q0-0.2 0.2-0.2h1.5q0.2 0 0.2 0.2v0.6q0.3-0.4 0.8-0.7 0.6-0.2 1.4-0.2 0.6 0 1.2 0.2 0.5 0.2 0.8 0.6 0.4 0.4 0.6 1 0.2 0.5 0.2 1.2v5.1q0 0.2-0.2 0.2z"/><path fill-rule="evenodd" class="a" d="m35.1 47.3q-1.3 0-2.1-0.6-0.9-0.6-1.3-1.7-0.1-0.4-0.2-0.9 0-0.4 0-1.1 0-0.6 0-1.1 0.1-0.5 0.2-0.9 0.4-1.1 1.2-1.6 0.9-0.6 2.2-0.6 1.2 0 2.1 0.6 0.9 0.6 1.2 1.6 0.1 0.2 0.1 0.4 0.1 0.3 0.1 0.6 0 0.2 0.1 0.6 0 0.4 0 0.9 0 0.1-0.2 0.1h-5q-0.1 0-0.1 0.1 0 0.2 0 0.4 0 0.1 0.1 0.3 0.4 1.2 1.8 1.2 0.7 0 1.2-0.2 0.4-0.2 0.7-0.6 0.2-0.1 0.3 0l1 0.9q0.1 0.1 0 0.2-0.5 0.6-1.4 1-0.8 0.4-2 0.4zm1.7-5.2q0-0.4-0.1-0.7-0.2-0.5-0.6-0.8-0.5-0.2-1-0.2-0.6 0-1 0.2-0.5 0.3-0.6 0.8-0.1 0.3-0.1 0.7 0 0.1 0.1 0.1h3.2q0.1 0 0.1-0.1z"/><path class="a" d="m40.9 47.1q-0.2 0-0.2-0.2v-7.8q0-0.2 0.2-0.2h1.5q0.2 0 0.2 0.2v0.7q0.3-0.5 0.8-0.8 0.6-0.2 1.3-0.2 0.5 0 1 0.1 0.4 0.2 0.7 0.5 0.2 0.2 0.1 0.3l-0.9 1.1q-0.1 0.1-0.3 0-0.2-0.1-0.5-0.2-0.3-0.1-0.7-0.1-0.8 0-1.1 0.5-0.4 0.5-0.4 1.5v4.4q0 0.2-0.2 0.2z"/><path fill-rule="evenodd" class="a" d="m52.4 47.1q-0.1 0-0.1-0.2v-0.6h-0.1q-0.3 0.5-0.8 0.7-0.6 0.3-1.5 0.3-0.5 0-1-0.2-0.5-0.1-0.9-0.4-0.4-0.3-0.6-0.8-0.2-0.5-0.2-1.1 0-1.3 0.9-2 0.8-0.6 2.4-0.6h1.6q0.1 0 0.1-0.1v-0.4q0-0.7-0.4-1-0.4-0.3-1.4-0.3-0.7 0-1.1 0.1-0.5 0.2-0.8 0.4-0.1 0.1-0.2 0l-0.6-1.1q-0.1-0.2 0-0.2 0.5-0.4 1.2-0.6 0.7-0.2 1.7-0.2 1.9 0 2.6 0.6 0.8 0.7 0.8 2.2v5.3q0 0.2-0.2 0.2zm-2-1.4q0.9 0 1.4-0.3 0.4-0.3 0.4-1v-0.7q0-0.1-0.1-0.1h-1.3q-0.9 0-1.4 0.3-0.4 0.3-0.4 0.8 0 1 1.4 1z"/><path class="a" d="m58.6 47.2q-1.2 0-1.7-0.6-0.5-0.5-0.5-1.7v-9.1q0-0.2 0.2-0.2h1.5q0.2 0 0.2 0.2v9q0 0.4 0.1 0.6 0.2 0.1 0.6 0.1h0.4q0.1 0 0.1 0.2v1.3q0 0.2-0.1 0.2z"/><path fill-rule="evenodd" class="a" d="m68.4 35.8q0-0.2 0.2-0.2h1.5q0.2 0 0.2 0.2l3.9 11.1q0.1 0.2-0.1 0.2h-1.6q-0.2 0-0.3-0.2l-0.7-2.2h-4.4l-0.7 2.2q-0.1 0.2-0.2 0.2h-1.7q-0.1 0-0.1-0.2zm2.5 7.2l-1.5-4.5-1.6 4.5z"/><path class="a" d="m80.7 47.1q-0.2 0-0.2-0.2v-0.6q-0.3 0.5-0.8 0.7-0.5 0.3-1.3 0.3-0.7 0-1.2-0.2-0.5-0.3-0.9-0.7-0.3-0.4-0.5-0.9-0.2-0.6-0.2-1.2v-5.2q0-0.2 0.1-0.2h1.6q0.2 0 0.2 0.2v4.7q0 0.8 0.3 1.3 0.4 0.5 1.2 0.5 0.7 0 1.1-0.5 0.4-0.5 0.4-1.3v-4.7q0-0.2 0.2-0.2h1.5q0.2 0 0.2 0.2v7.8q0 0.2-0.2 0.2z"/><path class="a" d="m87.3 47.2q-1.3 0-1.8-0.6-0.5-0.6-0.5-1.8v-4.3q0-0.1-0.1-0.1h-0.5q-0.2 0-0.2-0.2v-1.1q0-0.2 0.2-0.2h0.5q0.1 0 0.1-0.1v-2.2q0-0.2 0.2-0.2h1.5q0.2 0 0.2 0.2v2.2q0 0.1 0.1 0.1h1.1q0.2 0 0.2 0.2v1.1q0 0.2-0.2 0.2h-1.1q-0.1 0-0.1 0.1v4.2q0 0.5 0.2 0.7 0.2 0.1 0.6 0.1h0.4q0.2 0 0.2 0.2v1.3q0 0.2-0.2 0.2z"/><path class="a" d="m95.5 47.1q-0.2 0-0.2-0.2v-4.7q0-0.8-0.4-1.3-0.4-0.4-1.1-0.4-0.8 0-1.2 0.4-0.4 0.5-0.4 1.3v4.7q0 0.2-0.2 0.2h-1.5q-0.2 0-0.2-0.2v-11.1q0-0.2 0.2-0.2h1.5q0.2 0 0.2 0.2v3.9q0.3-0.4 0.8-0.7 0.6-0.2 1.4-0.2 0.6 0 1.2 0.2 0.5 0.2 0.8 0.6 0.4 0.4 0.6 1 0.2 0.5 0.2 1.2v5.1q0 0.2-0.2 0.2z"/><path fill-rule="evenodd" class="a" d="m102.8 47.3q-1.3 0-2.1-0.6-0.9-0.6-1.3-1.7-0.1-0.4-0.2-0.9 0-0.4 0-1.1 0-0.7 0-1.1 0.1-0.5 0.2-0.9 0.4-1.1 1.3-1.6 0.8-0.6 2.1-0.6 1.2 0 2.1 0.6 0.9 0.5 1.2 1.6 0.2 0.4 0.3 0.9 0 0.4 0 1.1 0 0.7 0 1.1-0.1 0.5-0.3 0.9-0.3 1.1-1.2 1.7-0.9 0.6-2.1 0.6zm0-1.7q0.6 0 1-0.3 0.3-0.3 0.5-0.8 0.1-0.3 0.2-0.6 0-0.4 0-0.9 0-0.5 0-0.8-0.1-0.3-0.2-0.7-0.2-0.5-0.5-0.8-0.4-0.2-1-0.2-0.6 0-1 0.2-0.4 0.3-0.5 0.8-0.1 0.4-0.2 0.7 0 0.3 0 0.8 0 0.5 0 0.9 0.1 0.3 0.2 0.6 0.1 0.5 0.5 0.8 0.4 0.3 1 0.3z"/><path class="a" d="m108.6 47.1q-0.1 0-0.1-0.2v-7.8q0-0.2 0.1-0.2h1.6q0.1 0 0.1 0.2v0.7h0.1q0.3-0.5 0.8-0.8 0.5-0.2 1.3-0.2 0.5 0 0.9 0.1 0.5 0.2 0.8 0.5 0.1 0.2 0 0.3l-0.9 1.1q-0.1 0.1-0.2 0-0.3-0.1-0.6-0.2-0.3-0.1-0.6-0.1-0.8 0-1.2 0.5-0.4 0.5-0.4 1.5v4.4q0 0.2-0.1 0.2z"/><path class="a" d="m115.8 37.4q-0.2 0-0.2-0.2v-1.4q0-0.2 0.2-0.2h1.5q0.2 0 0.2 0.2v1.4q0 0.2-0.2 0.2zm0 9.7q-0.1 0-0.1-0.2v-7.8q0-0.2 0.1-0.2h1.6q0.2 0 0.2 0.2v7.8q0 0.2-0.2 0.2z"/><path class="a" d="m122.4 47.2q-1.3 0-1.8-0.6-0.5-0.6-0.5-1.8v-4.3q0-0.1-0.1-0.1h-0.5q-0.2 0-0.2-0.2v-1.1q0-0.2 0.2-0.2h0.5q0.1 0 0.1-0.1v-2.2q0-0.2 0.2-0.2h1.5q0.2 0 0.2 0.2v2.2q0 0.1 0.1 0.1h1.1q0.1 0 0.1 0.2v1.1q0 0.2-0.1 0.2h-1.1q-0.1 0-0.1 0.1v4.2q0 0.5 0.2 0.7 0.2 0.1 0.6 0.1h0.4q0.1 0 0.1 0.2v1.3q0 0.2-0.1 0.2z"/><path class="a" d="m125.7 50.1q-0.2 0-0.2-0.1v-1.4q0-0.1 0.2-0.1h0.3q0.5 0 0.8-0.3 0.2-0.2 0.4-0.7l0.3-0.7-3-7.7q-0.1-0.2 0.1-0.2h1.7q0.1 0 0.2 0.2l1.8 5.3h0.1l1.7-5.3q0.1-0.2 0.2-0.2h1.6q0.2 0 0.2 0.2l-3.1 8.5q-0.3 0.7-0.6 1.2-0.2 0.5-0.6 0.8-0.3 0.3-0.7 0.4-0.4 0.1-0.9 0.1z"/><path fill-rule="evenodd" class="a" d="m140.8 47.3q-1.2 0-2.1-0.6-0.9-0.6-1.3-1.7-0.1-0.4-0.2-0.9 0-0.4 0-1.1 0-0.7 0-1.1 0.1-0.5 0.2-0.9 0.4-1.1 1.3-1.6 0.9-0.6 2.1-0.6 1.3 0 2.1 0.6 0.9 0.5 1.3 1.6 0.1 0.4 0.2 0.9 0 0.4 0 1.1 0 0.7 0 1.1-0.1 0.5-0.2 0.9-0.4 1.1-1.3 1.7-0.8 0.6-2.1 0.6zm0-1.7q0.6 0 1-0.3 0.4-0.3 0.5-0.8 0.1-0.3 0.2-0.6 0-0.4 0-0.9 0-0.5 0-0.8-0.1-0.3-0.2-0.7-0.1-0.5-0.5-0.8-0.4-0.2-1-0.2-0.6 0-1 0.2-0.3 0.3-0.5 0.8-0.1 0.4-0.2 0.7 0 0.3 0 0.8 0 0.5 0 0.9 0.1 0.3 0.2 0.6 0.2 0.5 0.5 0.8 0.4 0.3 1 0.3z"/><path class="a" d="m146.9 47.1q-0.2 0-0.2-0.2v-6.4q0-0.1-0.1-0.1h-0.5q-0.2 0-0.2-0.2v-1.1q0-0.2 0.2-0.2h0.5q0.1 0 0.1-0.1v-0.5q0-1.4 0.7-2.1 0.7-0.6 2-0.6h0.8q0.1 0 0.1 0.2v1.3q0 0.2-0.1 0.2h-0.5q-0.4 0-0.6 0-0.2 0.1-0.3 0.2-0.1 0.1-0.1 0.3-0.1 0.2-0.1 0.5v0.5q0 0.1 0.1 0.1h1.5q0.1 0 0.1 0.2v1.1q0 0.2-0.1 0.2h-1.5q-0.1 0-0.1 0.1v6.4q0 0.2-0.2 0.2z"/><path class="a" d="m159.7 47.3q-0.7 0-1.3-0.1-0.6-0.1-1.1-0.4-0.6-0.2-1.1-0.4-0.4-0.3-0.8-0.6-0.1-0.2 0-0.3l1.1-1.2q0.1-0.1 0.2 0 0.3 0.2 0.6 0.4 0.4 0.2 0.8 0.4 0.4 0.2 0.8 0.3 0.4 0.1 0.9 0.1 1.1 0 1.6-0.5 0.6-0.4 0.6-1.2 0-0.6-0.5-1-0.4-0.4-1.6-0.6h-0.6q-1.7-0.3-2.6-1.1-0.9-0.8-0.9-2.2 0-0.8 0.3-1.4 0.3-0.7 0.8-1.1 0.5-0.5 1.2-0.7 0.7-0.3 1.6-0.3 1.1 0 2.1 0.3 0.9 0.3 1.6 0.9 0.1 0.1 0.1 0.2l-0.8 1.2q-0.2 0.2-0.3 0.1-0.7-0.5-1.4-0.7-0.6-0.2-1.3-0.2-0.9 0-1.4 0.4-0.5 0.5-0.5 1.1 0 0.6 0.5 1 0.5 0.4 1.7 0.6l0.6 0.1q1.6 0.2 2.5 1 0.9 0.8 0.9 2.3 0 0.8-0.3 1.4-0.2 0.7-0.8 1.2-0.5 0.4-1.3 0.7-0.9 0.3-1.9 0.3z"/><path fill-rule="evenodd" class="a" d="m166.1 50.1q-0.1 0-0.1-0.1v-10.9q0-0.2 0.1-0.2h1.6q0.1 0 0.1 0.2v0.6h0.1q0.3-0.4 0.8-0.7 0.5-0.2 1.3-0.2 1.1 0 1.8 0.4 0.7 0.5 1.1 1.5 0.1 0.5 0.2 1 0 0.5 0 1.3 0 0.9 0 1.4-0.1 0.5-0.2 0.9-0.4 1-1.1 1.5-0.7 0.5-1.8 0.5-0.8 0-1.3-0.3-0.5-0.3-0.8-0.7h-0.1v3.7q0 0.1-0.1 0.1zm3.4-4.5q1.2 0 1.5-1.1 0.1-0.2 0.1-0.6 0.1-0.3 0.1-0.9 0-0.5-0.1-0.9 0-0.3-0.1-0.6-0.3-1-1.5-1-1.2 0-1.5 1-0.1 0.3-0.2 0.6 0 0.4 0 0.9 0 0.6 0 0.9 0.1 0.4 0.2 0.6 0.3 1.1 1.5 1.1z"/><path fill-rule="evenodd" class="a" d="m178.4 47.3q-1.3 0-2.2-0.6-0.9-0.6-1.2-1.7-0.1-0.4-0.2-0.9-0.1-0.4-0.1-1.1 0-0.7 0.1-1.1 0.1-0.5 0.2-0.9 0.3-1.1 1.2-1.6 0.9-0.6 2.2-0.6 1.2 0 2.1 0.6 0.9 0.5 1.2 1.6 0.2 0.4 0.2 0.9 0.1 0.4 0.1 1.1 0 0.7-0.1 1.1 0 0.5-0.2 0.9-0.3 1.1-1.2 1.7-0.9 0.6-2.1 0.6zm0-1.7q0.6 0 0.9-0.3 0.4-0.3 0.6-0.8 0.1-0.3 0.1-0.6 0.1-0.4 0.1-0.9 0-0.5-0.1-0.8 0-0.3-0.1-0.7-0.2-0.5-0.6-0.8-0.3-0.2-0.9-0.2-0.6 0-1 0.2-0.4 0.3-0.6 0.8-0.1 0.4-0.1 0.7 0 0.3 0 0.8 0 0.5 0 0.9 0 0.3 0.1 0.6 0.2 0.5 0.6 0.8 0.4 0.3 1 0.3z"/><path class="a" d="m184.2 47.1q-0.2 0-0.2-0.2v-7.8q0-0.2 0.2-0.2h1.6q0.1 0 0.1 0.2v0.7q0.3-0.5 0.9-0.8 0.5-0.2 1.3-0.2 0.4 0 0.9 0.1 0.4 0.2 0.8 0.5 0.1 0.2 0 0.3l-0.9 1.1q-0.1 0.1-0.2 0-0.3-0.1-0.6-0.2-0.3-0.1-0.6-0.1-0.8 0-1.2 0.5-0.4 0.5-0.4 1.5v4.4q0 0.2-0.1 0.2z"/><path class="a" d="m193.6 47.2q-1.3 0-1.8-0.6-0.5-0.6-0.5-1.8v-4.3q0-0.1-0.1-0.1h-0.5q-0.2 0-0.2-0.2v-1.1q0-0.2 0.2-0.2h0.5q0.1 0 0.1-0.1v-2.2q0-0.2 0.2-0.2h1.5q0.2 0 0.2 0.2v2.2q0 0.1 0.1 0.1h1.1q0.2 0 0.2 0.2v1.1q0 0.2-0.2 0.2h-1.1q-0.1 0-0.1 0.1v4.2q0 0.5 0.2 0.7 0.2 0.1 0.6 0.1h0.4q0.2 0 0.2 0.2v1.3q0 0.2-0.2 0.2z"/><path class="a" d="m199.6 47.3q-1.2 0-2.1-0.4-0.9-0.4-1.4-0.9-0.1-0.1 0-0.2l1-1.1q0.1-0.1 0.2 0 0.5 0.5 1.1 0.7 0.7 0.3 1.3 0.3 0.8 0 1.2-0.3 0.3-0.3 0.3-0.7 0-0.4-0.3-0.6-0.2-0.2-1-0.3l-0.9-0.1q-1.3-0.1-1.9-0.7-0.6-0.6-0.6-1.7 0-1.2 0.8-1.8 0.8-0.7 2.4-0.7 0.9 0 1.7 0.2 0.8 0.3 1.3 0.8 0.2 0.1 0 0.2l-0.8 1q-0.1 0.1-0.2 0-0.4-0.2-1-0.4-0.5-0.3-1.1-0.3-0.7 0-1 0.3-0.3 0.2-0.3 0.6 0 0.4 0.3 0.6 0.3 0.2 1.1 0.3h0.8q1.3 0.2 1.9 0.8 0.7 0.6 0.7 1.6 0 1.2-0.9 2-0.9 0.8-2.6 0.8z"/></svg>