<svg id="Layer_1" data-name="Layer 1" xmlns="http://www.w3.org/2000/svg" viewBox="0 0 635.15 221.29"><defs><style>.cls-1{fill:#fff;}</style></defs><title>FSFL</title><ellipse class="cls-1" cx="56.08" cy="45.24" rx="6.53" ry="6.33"/><path class="cls-1" d="M107.43,109.46A6.08,6.08,0,0,0,101,115.6a6.19,6.19,0,0,0,6.43,6.23,6.19,6.19,0,1,0,0-12.37Z"/><path class="cls-1" d="M121.36,109.46a6.15,6.15,0,0,0-6.43,6.14,6.43,6.43,0,0,0,12.85,0A6.15,6.15,0,0,0,121.36,109.46Z"/><path class="cls-1" d="M336.35,50.29a6.63,6.63,0,1,0-6.84-6.63A6.66,6.66,0,0,0,336.35,50.29Z"/><ellipse class="cls-1" cx="321.53" cy="43.66" rx="6.84" ry="6.63"/><path class="cls-1" d="M400.45,50.39a6.79,6.79,0,0,0,6.84-6.73,6.9,6.9,0,0,0-13.79,0A6.77,6.77,0,0,0,400.45,50.39Z"/><path class="cls-1" d="M495.67,109.46a6.15,6.15,0,0,0-6.42,6.14,6.43,6.43,0,0,0,12.85,0A6.15,6.15,0,0,0,495.67,109.46Z"/><path class="cls-1" d="M481.75,109.46a6.08,6.08,0,0,0-6.43,6.14,6.19,6.19,0,0,0,6.43,6.23,6.19,6.19,0,1,0,0-12.37Z"/><path class="cls-1" d="M47.88,57.28c-14.5,0-22.33,12-22.33,23.39s7.83,23.21,22.33,23.21c10.83,0,22.33-8.14,22.33-23.21C70.21,69.33,62.39,57.28,47.88,57.28Zm9.81,23.39c0,16.93-7.38,16.93-9.81,16.93S38,97.6,38,80.67s7.46-17,9.91-17S57.69,63.65,57.69,80.67Z"/><path class="cls-1" d="M295.23,78.12,293.36,76C287.64,80.58,283,87.2,283,94.68c0,3.69,1.67,7.76,6.31,7.76,2.46,0,4.93-1.89,4.93-4.44,0-4-2.76-5.49-6.51-5.68C287.74,86.54,291,81.62,295.23,78.12Z"/><path class="cls-1" d="M597.48,40.61C602,42,602,42.69,602,45V88.29c0,5.85-2.38,9.52-8.16,9.52h-4.33c-7.12,0-11.67-9-11.67-15.27V37.93l-13.52,2.48c4.13,1.39,4.54,1.79,4.54,4V88.59c0,5.75-2.27,9.22-7.74,9.22h-2.22a1.59,1.59,0,0,0-1.6-1.6H544.13A98.43,98.43,0,0,0,545,81.94V57.26a1.59,1.59,0,0,0-.57-1.22,1.56,1.56,0,0,0-1.31-.35l-13.73,2.48a1.6,1.6,0,0,0-.19,3.1c3.52,1.07,3.52,1.14,3.52,2.93V89.31c-.84,18.93-8.71,24.62-22,28.06a1.61,1.61,0,0,0-1.2,1.69,1.6,1.6,0,0,0,1.47,1.45c3.44.27,6,.4,7.56.4,13,0,20.91-5.84,24.26-17.84h14.56a1.59,1.59,0,0,0,1.6-1.6H563c6.5,0,12.8-1.78,15.28-7.73,3.2,4.66,7.74,7.73,13,7.73H596c8.78,0,15.08-4.56,15.08-12.88V38.13Z"/><path class="cls-1" d="M57.46,156.68a24.5,24.5,0,0,1,1.23-7.85,19.13,19.13,0,0,1,3.55-6.39,16.5,16.5,0,0,1,5.61-4.26,18.25,18.25,0,0,1,14.72,0,16.53,16.53,0,0,1,5.62,4.26,19.31,19.31,0,0,1,3.55,6.39,25.73,25.73,0,0,1,0,15.72,19.16,19.16,0,0,1-3.55,6.36,16.56,16.56,0,0,1-5.62,4.27,18.36,18.36,0,0,1-14.72,0,16.52,16.52,0,0,1-5.61-4.27,19,19,0,0,1-3.55-6.36A24.4,24.4,0,0,1,57.46,156.68Zm29.78,0a30.23,30.23,0,0,0-.83-7.36A17.94,17.94,0,0,0,84,143.7a10.83,10.83,0,0,0-3.78-3.55,10.94,10.94,0,0,0-10.08,0,10.83,10.83,0,0,0-3.78,3.55A18.17,18.17,0,0,0,64,149.32,33,33,0,0,0,64,164a18.22,18.22,0,0,0,2.38,5.61,10.74,10.74,0,0,0,3.78,3.55,10.94,10.94,0,0,0,10.08,0A10.74,10.74,0,0,0,84,169.65,18,18,0,0,0,86.41,164,30.34,30.34,0,0,0,87.24,156.68Z"/><path class="cls-1" d="M110.44,158.11h-4v17.47h-5.16V144.65a10.25,10.25,0,0,0-.71-4.15c-.48-1.05-1.58-1.58-3.3-1.58H96.12v-1.15H111a34.6,34.6,0,0,1,4.3.32,15.12,15.12,0,0,1,4.69,1.4,10.53,10.53,0,0,1,3.78,3.12,8.77,8.77,0,0,1,1.55,5.47,9.34,9.34,0,0,1-.86,4.19,8.69,8.69,0,0,1-2.2,2.83,10.53,10.53,0,0,1-3,1.75,23.45,23.45,0,0,1-3.12,1l6,10a29.25,29.25,0,0,0,2,3,13.36,13.36,0,0,0,1.87,2,6.41,6.41,0,0,0,1.83,1.11,7.8,7.8,0,0,0,2,.46v1.15a5.79,5.79,0,0,1-1.4.4,11.82,11.82,0,0,1-2,.17,9.2,9.2,0,0,1-2.78-.4,7.68,7.68,0,0,1-2.49-1.37,14.93,14.93,0,0,1-2.44-2.58,38.21,38.21,0,0,1-2.6-4Zm.28-2a9.75,9.75,0,0,0,2.73-.45,10.6,10.6,0,0,0,2.89-1.41,8.29,8.29,0,0,0,2.32-2.46,6.85,6.85,0,0,0,.94-3.7,7.4,7.4,0,0,0-.94-3.83,8.29,8.29,0,0,0-2.32-2.58,9.86,9.86,0,0,0-2.89-1.43,9.44,9.44,0,0,0-2.73-.46,16.4,16.4,0,0,0-2.26.17,17.79,17.79,0,0,0-2,.4v15.18a17.79,17.79,0,0,0,2,.4A15,15,0,0,0,110.72,156.1Z"/><path class="cls-1" d="M159.24,176.55a23.7,23.7,0,0,1-4.67-.46,16.84,16.84,0,0,1-4.15-1.34,9.25,9.25,0,0,1-3-2.18,4.26,4.26,0,0,1-1.15-2.89V163H148q.92,6,3.67,8.47a10.73,10.73,0,0,0,7.55,2.52,8.72,8.72,0,0,0,5.2-1.4,4.77,4.77,0,0,0,2-4.15,5.68,5.68,0,0,0-1.58-4.1A21.45,21.45,0,0,0,160.5,161l-7.05-4.24a16.63,16.63,0,0,1-5.5-4.7,9.75,9.75,0,0,1-1.6-5.55,8.51,8.51,0,0,1,3.47-7.16q3.47-2.64,9.36-2.64a24.48,24.48,0,0,1,4.67.46,17.28,17.28,0,0,1,4.15,1.35,9.34,9.34,0,0,1,3,2.17,4.24,4.24,0,0,1,1.15,2.9v6.7h-1.72q-1-6-3.64-8.48a9.81,9.81,0,0,0-7-2.52,7.42,7.42,0,0,0-4.87,1.49,5.53,5.53,0,0,0-1.36,6.21,6.35,6.35,0,0,0,1.2,1.75,12.32,12.32,0,0,0,1.86,1.55c.73.49,1.55,1,2.47,1.54l7,4.19a21.09,21.09,0,0,1,5.7,4.49,8.22,8.22,0,0,1,1.81,5.36,9.32,9.32,0,0,1-3.73,7.79Q166.17,176.56,159.24,176.55Z"/><path class="cls-1" d="M192.35,137.77c.84,0,1.81,0,2.92.12a20.63,20.63,0,0,1,3.38.54,19.63,19.63,0,0,1,3.35,1.18,10.16,10.16,0,0,1,2.95,2,9.43,9.43,0,0,1,2.09,3.15,11.82,11.82,0,0,1,.77,4.5,10.7,10.7,0,0,1-.77,4.24,9.48,9.48,0,0,1-2,3,10.64,10.64,0,0,1-2.8,2,16.17,16.17,0,0,1-3.07,1.14,16.85,16.85,0,0,1-2.86.52c-.9.08-1.63.12-2.21.12h-5.44v15.29h-7.44V145.22a10.07,10.07,0,0,0-.72-4.15c-.48-1-1.57-1.58-3.29-1.58h-.58v-1.72Zm0,2.29c-.46,0-.92,0-1.38.06a10.48,10.48,0,0,0-1.2.17c-.42.08-.8.14-1.15.18V158h3.44a10.13,10.13,0,0,0,2.83-.4,5.88,5.88,0,0,0,2.5-1.43,7.35,7.35,0,0,0,1.74-2.78,12.47,12.47,0,0,0,.66-4.38,12.21,12.21,0,0,0-.66-4.35,7.6,7.6,0,0,0-1.71-2.75,5.72,5.72,0,0,0-2.38-1.43A9.14,9.14,0,0,0,192.35,140.06Z"/><path class="cls-1" d="M210.9,156.68a22.74,22.74,0,0,1,1.35-7.91,18.93,18.93,0,0,1,3.84-6.36,18,18,0,0,1,5.95-4.23,20.23,20.23,0,0,1,15.53,0,17.7,17.7,0,0,1,5.92,4.23,18.86,18.86,0,0,1,3.81,6.36,23.82,23.82,0,0,1,0,15.81,18.86,18.86,0,0,1-3.81,6.36,17.72,17.72,0,0,1-5.92,4.24,20.35,20.35,0,0,1-15.53,0,18,18,0,0,1-5.95-4.24,18.93,18.93,0,0,1-3.84-6.36A22.68,22.68,0,0,1,210.9,156.68Zm29.85,0q0-8.37-2.87-12.92a9.41,9.41,0,0,0-16.12,0q-2.83,4.56-2.84,12.92t2.84,12.91a9.4,9.4,0,0,0,16.12,0Q240.75,165,240.75,156.68Z"/><path class="cls-1" d="M265.66,158.28h-2.29v17.3h-7.5V145.22a10.07,10.07,0,0,0-.72-4.15c-.48-1-1.57-1.58-3.29-1.58h-.58v-1.72h15.81c.92,0,1.93,0,3,.12a22.67,22.67,0,0,1,3.38.51,19.1,19.1,0,0,1,3.35,1.12,10.32,10.32,0,0,1,2.89,1.89,9.07,9.07,0,0,1,2,2.86,9.77,9.77,0,0,1,.77,4,8.49,8.49,0,0,1-.83,3.87,8.68,8.68,0,0,1-2.18,2.75,11.84,11.84,0,0,1-3,1.8,23.1,23.1,0,0,1-3.26,1.09l6,10a21.9,21.9,0,0,0,2.1,3,11.32,11.32,0,0,0,1.91,1.86,7.89,7.89,0,0,0,1.69,1,7.59,7.59,0,0,0,1.41.43v1.43a6.4,6.4,0,0,1-1.64.4,16.18,16.18,0,0,1-2.26.17,10.34,10.34,0,0,1-2.89-.4,9.07,9.07,0,0,1-2.75-1.37,15.28,15.28,0,0,1-2.69-2.58,32.15,32.15,0,0,1-2.78-4Zm1.43-18.22c-.45,0-.91,0-1.37.06a10.48,10.48,0,0,0-1.2.17c-.42.08-.81.14-1.15.18V156h3.44a9.73,9.73,0,0,0,2.75-.4,7.12,7.12,0,0,0,2.49-1.32,6.61,6.61,0,0,0,1.8-2.46,9.25,9.25,0,0,0,.69-3.78,9.12,9.12,0,0,0-.69-3.76,7.14,7.14,0,0,0-1.77-2.46,6.47,6.47,0,0,0-2.41-1.34A8.78,8.78,0,0,0,267.09,140.06Z"/><path class="cls-1" d="M318.42,137.77v2.58h-12v35.23H299V140.35h-4.07a7.17,7.17,0,0,0-4.81,1.52c-1.18,1-1.78,2.8-1.78,5.36h-1.71v-4.87a6.8,6.8,0,0,1,.2-1.69,3.38,3.38,0,0,1,.74-1.46,3.88,3.88,0,0,1,1.49-1,6.21,6.21,0,0,1,2.43-.41Z"/><path class="cls-1" d="M334.28,176.55a23.7,23.7,0,0,1-4.67-.46,17,17,0,0,1-4.15-1.34,9.47,9.47,0,0,1-3-2.18,4.25,4.25,0,0,1-1.14-2.89V163h1.71q.92,6,3.68,8.47a10.71,10.71,0,0,0,7.54,2.52,8.76,8.76,0,0,0,5.21-1.4,4.76,4.76,0,0,0,2-4.15,5.68,5.68,0,0,0-1.57-4.1,21.54,21.54,0,0,0-4.33-3.29l-7-4.24a16.52,16.52,0,0,1-5.5-4.7,9.75,9.75,0,0,1-1.61-5.55,8.51,8.51,0,0,1,3.47-7.16q3.47-2.64,9.36-2.64a24.4,24.4,0,0,1,4.67.46,17.51,17.51,0,0,1,4.16,1.35,9.29,9.29,0,0,1,3,2.17,4.24,4.24,0,0,1,1.15,2.9v6.7h-1.72q-1-6-3.64-8.48a9.79,9.79,0,0,0-7-2.52,7.42,7.42,0,0,0-4.87,1.49,5,5,0,0,0-1.79,4.07,5.21,5.21,0,0,0,.43,2.14,6.18,6.18,0,0,0,1.21,1.75,11.4,11.4,0,0,0,1.86,1.55c.72.49,1.54,1,2.46,1.54l7,4.19a21.09,21.09,0,0,1,5.7,4.49,8.16,8.16,0,0,1,1.81,5.36,9.31,9.31,0,0,1-3.72,7.79Q341.21,176.56,334.28,176.55Z"/><path class="cls-1" d="M354.27,183.6a12.19,12.19,0,0,0,3.38-3.33,7.86,7.86,0,0,0,1.2-4.41l-1.71.58a3.06,3.06,0,0,1-2.24-.92,3,3,0,0,1-.91-2.23,3.32,3.32,0,0,1,3.43-3.44,3.6,3.6,0,0,1,2.72,1,4.1,4.1,0,0,1,1,3,11.57,11.57,0,0,1-1.63,6.27,12.8,12.8,0,0,1-4.67,4.33Z"/><path class="cls-1" d="M402.44,137.77a6.23,6.23,0,0,1,2.44.41,4,4,0,0,1,1.49,1,3.38,3.38,0,0,1,.74,1.46,7.3,7.3,0,0,1,.2,1.69v4.29h-1.14q0-3.43-1.87-5a8,8,0,0,0-5.29-1.58H389.9v15.18h12.94v2.29H389.9v18.05h-5.16V144.65a10.25,10.25,0,0,0-.71-4.15c-.48-1.05-1.58-1.58-3.3-1.58h-1.14v-1.15Z"/><path class="cls-1" d="M411.49,156.68a24.5,24.5,0,0,1,1.23-7.85,19.31,19.31,0,0,1,3.55-6.39,16.53,16.53,0,0,1,5.62-4.26,18.25,18.25,0,0,1,14.72,0,16.5,16.5,0,0,1,5.61,4.26,19.13,19.13,0,0,1,3.55,6.39,25.73,25.73,0,0,1,0,15.72,19,19,0,0,1-3.55,6.36,16.52,16.52,0,0,1-5.61,4.27,18.36,18.36,0,0,1-14.72,0,16.56,16.56,0,0,1-5.62-4.27,19.16,19.16,0,0,1-3.55-6.36A24.4,24.4,0,0,1,411.49,156.68Zm29.79,0a30.23,30.23,0,0,0-.83-7.36,18.17,18.17,0,0,0-2.38-5.62,10.83,10.83,0,0,0-3.78-3.55,10.94,10.94,0,0,0-10.08,0,10.83,10.83,0,0,0-3.78,3.55,17.94,17.94,0,0,0-2.38,5.62,33,33,0,0,0,0,14.72,18,18,0,0,0,2.38,5.61,10.74,10.74,0,0,0,3.78,3.55,10.94,10.94,0,0,0,10.08,0,10.74,10.74,0,0,0,3.78-3.55,18.22,18.22,0,0,0,2.38-5.61A30.34,30.34,0,0,0,441.28,156.68Z"/><path class="cls-1" d="M464.48,158.11h-4v17.47h-5.16V144.65a10.25,10.25,0,0,0-.71-4.15c-.48-1.05-1.58-1.58-3.3-1.58h-1.14v-1.15h14.89a34.46,34.46,0,0,1,4.29.32,15.1,15.1,0,0,1,4.7,1.4,10.53,10.53,0,0,1,3.78,3.12,8.84,8.84,0,0,1,1.55,5.47,9.34,9.34,0,0,1-.86,4.19,8.58,8.58,0,0,1-2.21,2.83,10.47,10.47,0,0,1-3,1.75,23.12,23.12,0,0,1-3.13,1l6,10a27.73,27.73,0,0,0,2,3,13.87,13.87,0,0,0,1.86,2A6.32,6.32,0,0,0,482,174a7.8,7.8,0,0,0,2,.46v1.15a5.93,5.93,0,0,1-1.4.4,11.85,11.85,0,0,1-2,.17,9.18,9.18,0,0,1-2.77-.4,7.83,7.83,0,0,1-2.5-1.37,15.3,15.3,0,0,1-2.43-2.58,39.84,39.84,0,0,1-2.61-4Zm.28-2a9.68,9.68,0,0,0,2.72-.45,10.65,10.65,0,0,0,2.9-1.41,8.29,8.29,0,0,0,2.32-2.46,6.85,6.85,0,0,0,.94-3.7,7.4,7.4,0,0,0-.94-3.83,8.29,8.29,0,0,0-2.32-2.58,9.92,9.92,0,0,0-2.9-1.43,9.38,9.38,0,0,0-2.72-.46,16.29,16.29,0,0,0-2.26.17,17.79,17.79,0,0,0-2,.4v15.18a17.79,17.79,0,0,0,2,.4A14.88,14.88,0,0,0,464.76,156.1Z"/><path class="cls-1" d="M530.29,173v2.58H503.08V145.22a10.07,10.07,0,0,0-.72-4.15c-.47-1-1.57-1.58-3.29-1.58h-.57v-1.72h6.87a7.17,7.17,0,0,1,2.49.38,3.23,3.23,0,0,1,1.61,1.23,5.54,5.54,0,0,1,.83,2.29,23.33,23.33,0,0,1,.23,3.55V173Z"/><path class="cls-1" d="M534.07,137.77h7.44v30.36a10,10,0,0,0,.72,4.15c.48,1.06,1.58,1.58,3.29,1.58h.58v1.72h-6.88a7.74,7.74,0,0,1-2.49-.35,3.15,3.15,0,0,1-1.6-1.2,5.46,5.46,0,0,1-.83-2.29,22.58,22.58,0,0,1-.23-3.61Z"/><path class="cls-1" d="M571.81,137.77a6.23,6.23,0,0,1,2.44.41,4,4,0,0,1,1.49,1,3.38,3.38,0,0,1,.74,1.46,6.8,6.8,0,0,1,.2,1.69v4.87H575c0-2.49-.62-4.25-1.86-5.3a8,8,0,0,0-5.29-1.58h-8V155h12.61v2.57H559.84v18.05H552.4V145.22a10.07,10.07,0,0,0-.72-4.15c-.48-1-1.57-1.58-3.29-1.58h-.58v-1.72Z"/><path class="cls-1" d="M604,137.77a6.21,6.21,0,0,1,2.43.41,3.88,3.88,0,0,1,1.49,1,3.51,3.51,0,0,1,.75,1.46,7.3,7.3,0,0,1,.19,1.69v4.87H607.1q0-3.67-1.86-5.28a8,8,0,0,0-5.3-1.6h-9.22v14.32h14.89v2.58H590.72V173h9.79a9.83,9.83,0,0,0,5.36-1.4,10.5,10.5,0,0,0,3.69-5.13l1.55.57-1.66,4.53a8.37,8.37,0,0,1-1.64,2.92,4.37,4.37,0,0,1-3.35,1.09H583.27V145.22a10.07,10.07,0,0,0-.72-4.15c-.48-1-1.57-1.58-3.29-1.58h-.57v-1.72Z"/><ellipse class="cls-1" cx="56.07" cy="45.58" rx="6.53" ry="6.33"/><path class="cls-1" d="M41.82,51.91a6.37,6.37,0,0,0,6.54-6.33,6.29,6.29,0,0,0-6.54-6.33,6.17,6.17,0,0,0-6.43,6.33A6.24,6.24,0,0,0,41.82,51.91Z"/><path class="cls-1" d="M107.42,109.8a6.08,6.08,0,0,0-6.43,6.14,6.19,6.19,0,0,0,6.43,6.23,6.19,6.19,0,1,0,0-12.37Z"/><path class="cls-1" d="M121.35,109.8a6.15,6.15,0,0,0-6.43,6.14,6.43,6.43,0,0,0,12.85,0A6.15,6.15,0,0,0,121.35,109.8Z"/><path class="cls-1" d="M336.34,50.63A6.63,6.63,0,1,0,329.5,44,6.66,6.66,0,0,0,336.34,50.63Z"/><ellipse class="cls-1" cx="321.52" cy="44" rx="6.84" ry="6.63"/><path class="cls-1" d="M400.44,50.73A6.79,6.79,0,0,0,407.28,44a6.9,6.9,0,0,0-13.79,0A6.77,6.77,0,0,0,400.44,50.73Z"/><path class="cls-1" d="M495.66,109.8a6.15,6.15,0,0,0-6.42,6.14,6.43,6.43,0,0,0,12.85,0A6.15,6.15,0,0,0,495.66,109.8Z"/><path class="cls-1" d="M481.74,109.8a6.08,6.08,0,0,0-6.43,6.14,6.19,6.19,0,0,0,6.43,6.23,6.19,6.19,0,1,0,0-12.37Z"/><path class="cls-1" d="M47.87,57.62c-14.5,0-22.33,12.05-22.33,23.39s7.83,23.2,22.33,23.2c10.83,0,22.33-8.13,22.33-23.2C70.2,69.67,62.38,57.62,47.87,57.62ZM57.68,81c0,16.93-7.38,16.93-9.81,16.93S38,97.94,38,81s7.46-17,9.91-17S57.68,64,57.68,81Z"/><path class="cls-1" d="M251.24,48.73V90.1c0,5.58-2.27,9.09-7.79,9.09h-4.14c-6.8,0-11.14-8.62-11.14-14.58V42l-12.92,2.37c3.95,1.32,4.34,1.7,4.34,3.79V90.38c0,5.49-2.17,8.81-7.39,8.81H210a1.52,1.52,0,0,0-1.52-1.53H197.41c-.82-17.94-10.92-36-27-36-10.57,0-15.66,5.72-19.21,11.27a7.91,7.91,0,0,1-3.37,3.19,1.52,1.52,0,0,0-.63,2.12l4,7.09a1.55,1.55,0,0,0,1.49.77A1.53,1.53,0,0,0,154,85.07c2-6.36,6.73-17,16.09-17,6.84,0,13.9,10.15,14.51,29.6H137.18c-5.81,0-9.52-7.73-9.52-13V60.47a1.52,1.52,0,0,0-.55-1.17,1.49,1.49,0,0,0-1.25-.33l-13,2.37a1.51,1.51,0,0,0-1.25,1.39,1.54,1.54,0,0,0,1,1.56c3.3,1.1,3.3,1.13,3.3,2.33V90.38c0,6.45-3.13,7.28-5.86,7.28h-7.59c-3.42-.23-5.08-2.33-5.08-6.43V42.39a1.52,1.52,0,0,0-.47-1.1,1.5,1.5,0,0,0-1.12-.42L80,41.53a1.53,1.53,0,0,0-1.46,1.53v3.12a1.53,1.53,0,0,0,1.53,1.53c5.57,0,5.57.84,5.57,1.59V90.86c0,8.86,5.42,13.35,16.12,13.35h10c7,0,12.07-2.1,14.81-6.11,3.37,4,7.6,6.11,12.11,6.11h69.7a1.52,1.52,0,0,0,1.52-1.52h4c6.21,0,12.23-1.71,14.59-7.39,3.06,4.45,7.4,7.39,12.43,7.39h4.53c8.38,0,14.39-4.36,14.39-12.31V42.2l-13,2.37C251.24,45.89,251.24,46.56,251.24,48.73Z"/><path class="cls-1" d="M295.22,78.46l-1.87-2.09C287.63,80.92,283,87.54,283,95c0,3.69,1.67,7.76,6.31,7.76,2.46,0,4.93-1.89,4.93-4.45,0-4-2.76-5.49-6.51-5.68C287.73,86.88,291,82,295.22,78.46Z"/><path class="cls-1" d="M407.84,58.88c-6.58,0-16.46,8-24.21,19.3V64.84a1.63,1.63,0,0,0-.57-1.23,1.61,1.61,0,0,0-1.3-.35l-13.63,2.38a1.6,1.6,0,0,0-.21,3.1c2.13.68,3.29,1.16,3.47,1.43a5.31,5.31,0,0,1,.06,1.11V88.63c0,7.09-3.68,7.91-6.45,7.91H353.05c-1-.08-3.9-.32-3.9-6.34V64.54a29.5,29.5,0,0,1,.68-6.86,1.57,1.57,0,0,0-.3-1.37,1.6,1.6,0,0,0-1.25-.61h-5.16a1.58,1.58,0,0,0-1.11.45,3,3,0,0,0-1,1.9,1.47,1.47,0,0,0-.1.22c-.09.26-.18.5-.26.72l-.32-.2a23.22,23.22,0,0,0-13-4.18c-14.25,0-22.77,12.31-22.77,24.2,0,13.57,9.24,24.6,20.6,24.6a17.16,17.16,0,0,0,14.09-7c2.28,6.81,9.47,6.91,13.66,7h81.27a1.59,1.59,0,0,0,1.6-1.6C435.66,75.33,425,58.88,407.84,58.88Zm15,37.66H383.27c3.14-10.3,15.82-31.29,25-31.29C415.19,65.25,422.3,76,422.84,96.54Zm-96.35.3c-3.23,0-9.34-3.64-9.34-17.43,0-9,3.14-18.13,10.17-18.13,8.18,0,9.86,6.5,9.86,16.25,0,5-.18,8.68-1.06,11.51C334.65,93.71,330.78,96.84,326.49,96.84Z"/><path class="cls-1" d="M496.28,56l-13.63,2.48A1.59,1.59,0,0,0,481.34,60a1.6,1.6,0,0,0,1.13,1.62C486,62.68,486,62.75,486,64.54V88.63c0,7-3.52,7.87-6.14,7.91H468.39c-3.58-.25-5.33-2.45-5.33-6.73V38.67a1.59,1.59,0,0,0-1.66-1.6l-16.52.7a1.59,1.59,0,0,0-1.53,1.59v3.27a1.59,1.59,0,0,0,1.6,1.6c5.83,0,5.83.89,5.83,1.67V89.42c0,9.28,5.68,14,16.88,14h13.93c10.07,0,16.57-5.69,16.57-14.49V57.6a1.63,1.63,0,0,0-.57-1.23A1.58,1.58,0,0,0,496.28,56Z"/><path class="cls-1" d="M597.47,41C602,42.34,602,43,602,45.31V88.63c0,5.85-2.38,9.51-8.16,9.51h-4.33c-7.12,0-11.67-9-11.67-15.26V38.27l-13.52,2.48c4.13,1.39,4.54,1.78,4.54,4V88.93c0,5.74-2.27,9.21-7.74,9.21h-2.22a1.6,1.6,0,0,0-1.6-1.6H544.12A98.22,98.22,0,0,0,545,82.28V57.6a1.63,1.63,0,0,0-.57-1.23,1.58,1.58,0,0,0-1.31-.34l-13.73,2.48a1.6,1.6,0,0,0-.19,3.1c3.52,1.07,3.52,1.14,3.52,2.93V89.65c-.84,18.92-8.71,24.62-22,28.06a1.6,1.6,0,0,0,.27,3.14c3.44.27,6,.4,7.56.4,13,0,20.91-5.84,24.26-17.84h14.56a1.6,1.6,0,0,0,1.6-1.6H563c6.5,0,12.8-1.78,15.28-7.73,3.2,4.66,7.74,7.73,13,7.73H596c8.78,0,15.08-4.56,15.08-12.88V38.47Z"/><path class="cls-1" d="M48.4,138.11a6.42,6.42,0,0,1,2.43.4,4,4,0,0,1,1.49,1,3.43,3.43,0,0,1,.74,1.46,6.91,6.91,0,0,1,.2,1.69V147H52.12q0-3.44-1.86-5A8,8,0,0,0,45,140.4H35.85v15.18H48.8v2.29H35.85v18H30.7V145a10.12,10.12,0,0,0-.72-4.16c-.48-1.05-1.57-1.57-3.29-1.57H25.54v-1.15Z"/><path class="cls-1" d="M57.45,157a24.48,24.48,0,0,1,1.23-7.84,18.94,18.94,0,0,1,3.55-6.39,16.52,16.52,0,0,1,5.61-4.27,18.36,18.36,0,0,1,14.72,0,16.56,16.56,0,0,1,5.62,4.27,19.11,19.11,0,0,1,3.55,6.39,25.73,25.73,0,0,1,0,15.72,19.16,19.16,0,0,1-3.55,6.36,16.53,16.53,0,0,1-5.62,4.26,18.25,18.25,0,0,1-14.72,0,16.5,16.5,0,0,1-5.61-4.26,19,19,0,0,1-3.55-6.36A24.42,24.42,0,0,1,57.45,157Zm29.78,0a30.34,30.34,0,0,0-.83-7.36A18,18,0,0,0,84,144a10.74,10.74,0,0,0-3.78-3.55,10.94,10.94,0,0,0-10.08,0A10.74,10.74,0,0,0,66.38,144,18.22,18.22,0,0,0,64,149.65a33,33,0,0,0,0,14.72A18.17,18.17,0,0,0,66.38,170a10.83,10.83,0,0,0,3.78,3.55,10.94,10.94,0,0,0,10.08,0A10.83,10.83,0,0,0,84,170a17.94,17.94,0,0,0,2.38-5.62A30.23,30.23,0,0,0,87.23,157Z"/><path class="cls-1" d="M110.43,158.45h-4v17.47h-5.16V145a10.31,10.31,0,0,0-.71-4.16c-.48-1.05-1.58-1.57-3.3-1.57H96.11v-1.15H111a34.6,34.6,0,0,1,4.3.32,14.86,14.86,0,0,1,4.69,1.4,10.53,10.53,0,0,1,3.78,3.12,8.77,8.77,0,0,1,1.55,5.47,9.3,9.3,0,0,1-.86,4.18,8.73,8.73,0,0,1-2.2,2.84,10.77,10.77,0,0,1-3,1.75,23.45,23.45,0,0,1-3.12,1l6,10a28.44,28.44,0,0,0,2,3,12.77,12.77,0,0,0,1.87,2,6.23,6.23,0,0,0,1.83,1.12,8.24,8.24,0,0,0,2,.46v1.15a5.79,5.79,0,0,1-1.4.4,11.82,11.82,0,0,1-2,.17,9.53,9.53,0,0,1-2.78-.4,7.53,7.53,0,0,1-2.49-1.38,15.21,15.21,0,0,1-2.44-2.57,37.39,37.39,0,0,1-2.6-4Zm.28-2a9.44,9.44,0,0,0,2.73-.46,10.28,10.28,0,0,0,2.89-1.4,8.29,8.29,0,0,0,2.32-2.46,6.9,6.9,0,0,0,.94-3.7,7.44,7.44,0,0,0-.94-3.84,8.37,8.37,0,0,0-2.32-2.57,10.15,10.15,0,0,0-2.89-1.44,9.75,9.75,0,0,0-2.73-.45,14.88,14.88,0,0,0-2.26.17,17.79,17.79,0,0,0-2,.4v15.18a20.28,20.28,0,0,0,2,.4A16.29,16.29,0,0,0,110.71,156.44Z"/><path class="cls-1" d="M159.23,176.89a23.7,23.7,0,0,1-4.67-.46,16.84,16.84,0,0,1-4.15-1.34,9.4,9.4,0,0,1-3-2.18,4.26,4.26,0,0,1-1.15-2.89v-6.71H148q.92,6,3.67,8.48a10.78,10.78,0,0,0,7.55,2.52,8.72,8.72,0,0,0,5.2-1.4,4.78,4.78,0,0,0,2-4.15,5.68,5.68,0,0,0-1.58-4.1,21.45,21.45,0,0,0-4.32-3.29l-7.05-4.24a16.63,16.63,0,0,1-5.5-4.7,9.75,9.75,0,0,1-1.6-5.55,8.51,8.51,0,0,1,3.47-7.16q3.47-2.64,9.36-2.64a23.7,23.7,0,0,1,4.67.46,16.44,16.44,0,0,1,4.15,1.35,9.34,9.34,0,0,1,3,2.17,4.28,4.28,0,0,1,1.15,2.89v6.71H170.4q-1-6-3.64-8.48a9.81,9.81,0,0,0-7-2.52,7.36,7.36,0,0,0-4.87,1.49,5,5,0,0,0-1.79,4.06,5.06,5.06,0,0,0,.43,2.15,6.35,6.35,0,0,0,1.2,1.75,12.32,12.32,0,0,0,1.86,1.55c.73.49,1.55,1,2.47,1.54l7,4.18a21.29,21.29,0,0,1,5.7,4.5,8.22,8.22,0,0,1,1.81,5.36,9.32,9.32,0,0,1-3.73,7.79Q166.16,176.88,159.23,176.89Z"/><path class="cls-1" d="M192.34,138.11c.84,0,1.81,0,2.92.12a18.69,18.69,0,0,1,3.38.54A19.63,19.63,0,0,1,202,140a10.16,10.16,0,0,1,2.95,2,9.43,9.43,0,0,1,2.09,3.15,11.82,11.82,0,0,1,.77,4.5,10.62,10.62,0,0,1-.77,4.23,9.41,9.41,0,0,1-2,3,10.64,10.64,0,0,1-2.8,2,17.61,17.61,0,0,1-5.93,1.66c-.9.08-1.63.11-2.21.11h-5.44v15.3h-7.44V145.56a10.07,10.07,0,0,0-.72-4.15c-.48-1-1.57-1.58-3.29-1.58h-.58v-1.72Zm0,2.29q-.69,0-1.38.06a10.48,10.48,0,0,0-1.2.17,11.46,11.46,0,0,1-1.15.17v17.53h3.44a10.13,10.13,0,0,0,2.83-.4,6,6,0,0,0,2.5-1.43,7.35,7.35,0,0,0,1.74-2.78,12.47,12.47,0,0,0,.66-4.38,12.21,12.21,0,0,0-.66-4.35,7.51,7.51,0,0,0-1.71-2.75A5.85,5.85,0,0,0,195,140.8,9.47,9.47,0,0,0,192.34,140.4Z"/><path class="cls-1" d="M210.89,157a22.68,22.68,0,0,1,1.35-7.9,18.93,18.93,0,0,1,3.84-6.36,18,18,0,0,1,5.95-4.24,20.35,20.35,0,0,1,15.53,0,17.72,17.72,0,0,1,5.92,4.24,18.86,18.86,0,0,1,3.81,6.36,23.82,23.82,0,0,1,0,15.81,18.86,18.86,0,0,1-3.81,6.36,17.7,17.7,0,0,1-5.92,4.23,20.23,20.23,0,0,1-15.53,0,18,18,0,0,1-5.95-4.23,18.93,18.93,0,0,1-3.84-6.36A22.7,22.7,0,0,1,210.89,157Zm29.85,0q0-8.35-2.87-12.91a9.4,9.4,0,0,0-16.12,0q-2.83,4.54-2.84,12.91t2.84,12.92a9.41,9.41,0,0,0,16.12,0Q240.74,165.37,240.74,157Z"/><path class="cls-1" d="M265.65,158.62h-2.29v17.3h-7.5V145.56a10.07,10.07,0,0,0-.72-4.15c-.48-1-1.57-1.58-3.29-1.58h-.58v-1.72h15.81c.92,0,1.93,0,3,.12a21.44,21.44,0,0,1,3.38.51,19.38,19.38,0,0,1,3.35,1.12,10.32,10.32,0,0,1,2.89,1.89,9.07,9.07,0,0,1,2,2.86,9.77,9.77,0,0,1,.77,4,8.49,8.49,0,0,1-.83,3.87,8.68,8.68,0,0,1-2.18,2.75,11.84,11.84,0,0,1-3,1.8,23.1,23.1,0,0,1-3.26,1.09l6,10a21.45,21.45,0,0,0,2.1,3,12.16,12.16,0,0,0,1.91,1.86,7.42,7.42,0,0,0,1.69,1,6.9,6.9,0,0,0,1.41.43v1.44a6.4,6.4,0,0,1-1.64.4,16.18,16.18,0,0,1-2.26.17,10.73,10.73,0,0,1-2.89-.4,8.88,8.88,0,0,1-2.75-1.38,15.57,15.57,0,0,1-2.69-2.57,31.57,31.57,0,0,1-2.78-4Zm1.43-18.22c-.45,0-.91,0-1.37.06a10.48,10.48,0,0,0-1.2.17c-.42.08-.81.14-1.15.17v15.53h3.44a10.11,10.11,0,0,0,2.75-.4,7.12,7.12,0,0,0,2.49-1.32,6.61,6.61,0,0,0,1.8-2.46,9.33,9.33,0,0,0,.69-3.79,9.1,9.1,0,0,0-.69-3.75,7.14,7.14,0,0,0-1.77-2.46,6.64,6.64,0,0,0-2.41-1.35A9.1,9.1,0,0,0,267.08,140.4Z"/><path class="cls-1" d="M318.41,138.11v2.58h-12v35.23H299V140.69h-4.07a7.17,7.17,0,0,0-4.81,1.52c-1.18,1-1.78,2.8-1.78,5.35h-1.71v-4.87a6.91,6.91,0,0,1,.2-1.69,3.43,3.43,0,0,1,.74-1.46,4,4,0,0,1,1.49-1,6.42,6.42,0,0,1,2.43-.4Z"/><path class="cls-1" d="M334.27,176.89a23.7,23.7,0,0,1-4.67-.46,17,17,0,0,1-4.15-1.34,9.63,9.63,0,0,1-3-2.18,4.25,4.25,0,0,1-1.14-2.89v-6.71H323q.91,6,3.68,8.48a10.75,10.75,0,0,0,7.54,2.52,8.76,8.76,0,0,0,5.21-1.4,4.77,4.77,0,0,0,2-4.15,5.68,5.68,0,0,0-1.57-4.1,21.54,21.54,0,0,0-4.33-3.29l-7-4.24a16.52,16.52,0,0,1-5.5-4.7,9.75,9.75,0,0,1-1.61-5.55,8.51,8.51,0,0,1,3.47-7.16q3.47-2.64,9.36-2.64a23.63,23.63,0,0,1,4.67.46,16.65,16.65,0,0,1,4.16,1.35,9.29,9.29,0,0,1,3,2.17,4.23,4.23,0,0,1,1.15,2.89v6.71h-1.72q-1-6-3.64-8.48a9.79,9.79,0,0,0-7-2.52,7.36,7.36,0,0,0-4.87,1.49,5,5,0,0,0-1.79,4.06,5.22,5.22,0,0,0,.43,2.15,6.35,6.35,0,0,0,1.2,1.75,11.94,11.94,0,0,0,1.87,1.55c.72.49,1.54,1,2.46,1.54l7,4.18a21.29,21.29,0,0,1,5.7,4.5,8.16,8.16,0,0,1,1.81,5.36,9.29,9.29,0,0,1-3.73,7.79Q341.2,176.88,334.27,176.89Z"/><path class="cls-1" d="M354.26,183.94a12.19,12.19,0,0,0,3.38-3.33,7.86,7.86,0,0,0,1.2-4.41l-1.71.57a3.11,3.11,0,0,1-3.15-3.15,3.32,3.32,0,0,1,3.43-3.43,3.6,3.6,0,0,1,2.72,1,4.1,4.1,0,0,1,1,3,11.57,11.57,0,0,1-1.63,6.27,12.69,12.69,0,0,1-4.67,4.32Z"/><path class="cls-1" d="M402.43,138.11a6.44,6.44,0,0,1,2.44.4,4.07,4.07,0,0,1,1.49,1,3.43,3.43,0,0,1,.74,1.46,7.43,7.43,0,0,1,.2,1.69V147h-1.14q0-3.44-1.87-5A8,8,0,0,0,399,140.4h-9.11v15.18h12.94v2.29H389.89v18h-5.16V145a10.31,10.31,0,0,0-.71-4.16c-.48-1.05-1.58-1.57-3.3-1.57h-1.14v-1.15Z"/><path class="cls-1" d="M411.48,157a24.48,24.48,0,0,1,1.23-7.84,19.11,19.11,0,0,1,3.55-6.39,16.56,16.56,0,0,1,5.62-4.27,18.36,18.36,0,0,1,14.72,0,16.52,16.52,0,0,1,5.61,4.27,18.94,18.94,0,0,1,3.55,6.39,25.73,25.73,0,0,1,0,15.72,19,19,0,0,1-3.55,6.36,16.5,16.5,0,0,1-5.61,4.26,18.25,18.25,0,0,1-14.72,0,16.53,16.53,0,0,1-5.62-4.26,19.16,19.16,0,0,1-3.55-6.36A24.42,24.42,0,0,1,411.48,157Zm29.79,0a30.34,30.34,0,0,0-.83-7.36,18.22,18.22,0,0,0-2.38-5.61,10.74,10.74,0,0,0-3.78-3.55,10.94,10.94,0,0,0-10.08,0,10.74,10.74,0,0,0-3.78,3.55,18,18,0,0,0-2.38,5.61,33,33,0,0,0,0,14.72,17.94,17.94,0,0,0,2.38,5.62,10.83,10.83,0,0,0,3.78,3.55,10.94,10.94,0,0,0,10.08,0,10.83,10.83,0,0,0,3.78-3.55,18.17,18.17,0,0,0,2.38-5.62A30.23,30.23,0,0,0,441.27,157Z"/><path class="cls-1" d="M464.47,158.45h-4v17.47H455.3V145a10.31,10.31,0,0,0-.71-4.16c-.48-1.05-1.58-1.57-3.3-1.57h-1.14v-1.15H465a34.46,34.46,0,0,1,4.29.32,14.84,14.84,0,0,1,4.7,1.4,10.53,10.53,0,0,1,3.78,3.12,8.84,8.84,0,0,1,1.55,5.47,9.3,9.3,0,0,1-.86,4.18,8.62,8.62,0,0,1-2.21,2.84,10.71,10.71,0,0,1-3,1.75,23.12,23.12,0,0,1-3.13,1l6,10a27,27,0,0,0,2,3,13.24,13.24,0,0,0,1.86,2,6.15,6.15,0,0,0,1.84,1.12,8.24,8.24,0,0,0,2,.46v1.15a5.93,5.93,0,0,1-1.4.4,11.85,11.85,0,0,1-2,.17,9.51,9.51,0,0,1-2.77-.4,7.67,7.67,0,0,1-2.5-1.38,15.59,15.59,0,0,1-2.43-2.57,38.94,38.94,0,0,1-2.61-4Zm.28-2a9.38,9.38,0,0,0,2.72-.46,10.34,10.34,0,0,0,2.9-1.4,8.29,8.29,0,0,0,2.32-2.46,6.9,6.9,0,0,0,.94-3.7,7.44,7.44,0,0,0-.94-3.84,8.37,8.37,0,0,0-2.32-2.57,10.2,10.2,0,0,0-2.9-1.44,9.68,9.68,0,0,0-2.72-.45,14.88,14.88,0,0,0-2.26.17,17.79,17.79,0,0,0-2,.4v15.18a20.28,20.28,0,0,0,2,.4A16.29,16.29,0,0,0,464.75,156.44Z"/><path class="cls-1" d="M530.28,173.34v2.58H503.07V145.56a10.07,10.07,0,0,0-.72-4.15c-.47-1-1.57-1.58-3.29-1.58h-.57v-1.72h6.87a7.43,7.43,0,0,1,2.49.37,3.31,3.31,0,0,1,1.61,1.24,5.54,5.54,0,0,1,.83,2.29,23.33,23.33,0,0,1,.23,3.55v27.78Z"/><path class="cls-1" d="M534.06,138.11h7.44v30.36a10.07,10.07,0,0,0,.72,4.15c.48,1,1.58,1.58,3.29,1.58h.58v1.72h-6.88a7.74,7.74,0,0,1-2.49-.35,3.15,3.15,0,0,1-1.6-1.2,5.46,5.46,0,0,1-.83-2.29,22.67,22.67,0,0,1-.23-3.61Z"/><path class="cls-1" d="M571.8,138.11a6.44,6.44,0,0,1,2.44.4,4.07,4.07,0,0,1,1.49,1,3.43,3.43,0,0,1,.74,1.46,6.91,6.91,0,0,1,.2,1.69v4.87H575c0-2.48-.62-4.25-1.86-5.29a7.9,7.9,0,0,0-5.29-1.58h-8V155.3h12.6v2.57h-12.6v18h-7.44V145.56a10.07,10.07,0,0,0-.72-4.15c-.48-1-1.57-1.58-3.29-1.58h-.58v-1.72Z"/><path class="cls-1" d="M603.94,138.11a6.42,6.42,0,0,1,2.43.4,4,4,0,0,1,1.49,1,3.57,3.57,0,0,1,.75,1.46,7.42,7.42,0,0,1,.19,1.69v4.87h-1.71q0-3.66-1.86-5.27a7.9,7.9,0,0,0-5.3-1.6h-9.22V155H605.6v2.58H590.71v15.75h9.79a9.83,9.83,0,0,0,5.36-1.4,10.5,10.5,0,0,0,3.69-5.13l1.55.57-1.66,4.53a8.37,8.37,0,0,1-1.64,2.92,4.4,4.4,0,0,1-3.35,1.09H583.26V145.56a10.07,10.07,0,0,0-.72-4.15c-.48-1-1.57-1.58-3.29-1.58h-.57v-1.72Z"/></svg>